<?xml version="1.0" encoding="UTF-8" standalone="no"?>
<!-- Created with Inkscape (http://www.inkscape.org/) -->

<svg
   width="2048px"
   height="2048px"
   viewBox="0 0 2048 2048"
   version="1.1"
   id="SVGRoot"
   sodipodi:docname="changeIcon.svg"
   inkscape:version="1.2.2 (732a01da63, 2022-12-09)"
   xmlns:inkscape="http://www.inkscape.org/namespaces/inkscape"
   xmlns:sodipodi="http://sodipodi.sourceforge.net/DTD/sodipodi-0.dtd"
   xmlns="http://www.w3.org/2000/svg"
   xmlns:svg="http://www.w3.org/2000/svg">
  <sodipodi:namedview
     id="namedview6836"
     pagecolor="#ffffff"
     bordercolor="#000000"
     borderopacity="0.25"
     inkscape:showpageshadow="2"
     inkscape:pageopacity="0.0"
     inkscape:pagecheckerboard="0"
     inkscape:deskcolor="#d1d1d1"
     inkscape:document-units="px"
     showgrid="false"
     inkscape:zoom="0.26362494"
     inkscape:cx="1430.0619"
     inkscape:cy="1232.812"
     inkscape:window-width="1920"
     inkscape:window-height="1017"
     inkscape:window-x="-8"
     inkscape:window-y="-8"
     inkscape:window-maximized="1"
     inkscape:current-layer="layer1" />
  <defs
     id="defs6831">
    <inkscape:path-effect
       effect="spiro"
       id="path-effect6848"
       is_visible="true"
       lpeversion="1" />
  </defs>
  <g
     inkscape:label="Слой 1"
     inkscape:groupmode="layer"
     id="layer1">
    <path
       style="font-variation-settings:normal;opacity:1;vector-effect:none;fill:#000000;fill-opacity:0;stroke:#000000;stroke-width:1;stroke-linecap:butt;stroke-linejoin:miter;stroke-miterlimit:4;stroke-dasharray:none;stroke-dashoffset:0;stroke-opacity:1;-inkscape-stroke:none;stop-color:#000000;stop-opacity:1"
       d="m 1570.4129,576.5767 c -18.4189,-50.87938 -52.5047,-94.77598 -91.0385,-132.76437 -80.3336,-79.19659 -182.2609,-136.02346 -291.535,-164.03696 -109.2741,-28.0135 -225.61193,-27.29092 -334.87615,0.76113 -218.52842,56.10409 -403.0088,223.93406 -488.80954,432.59784 -82.70135,201.12621 -74.21892,439.26526 29.05488,630.64386 103.27381,191.3787 301.1733,330.4216 517.17567,355.6058 153.04744,17.8441 310.22954,-19.7934 444.66914,-95.0792 134.4396,-75.2857 246.7171,-186.9001 332.9508,-314.5938 9.2477,-13.6939 18.2571,-27.6632 24.7932,-42.8396 6.536,-15.1765 10.5417,-31.718 9.3462,-48.1988 -1.0728,-14.7897 -6.3701,-29.1998 -14.8182,-41.3865 -8.4481,-12.1866 -19.9978,-22.149 -33.116,-29.0627 -26.2363,-13.8272 -58.2029,-15.0182 -86.431,-5.9234 -28.228,9.0949 -52.7785,27.8853 -71.4037,50.9643 -18.6253,23.0789 -31.5902,50.3212 -40.7935,78.5141 -15.0502,46.1037 -20.4187,95.1257 -37.9327,140.3509 -18.0704,46.662 -48.7439,87.9281 -85.9086,121.4342 -37.1648,33.5061 -80.7108,59.4617 -126.5144,79.609 -110.0562,48.4097 -235.26124,63.3617 -352.77391,37.9326 C 745.33342,1603.5975 630.07717,1529.4875 546.23056,1430.0619 443.60678,1308.3703 387.61159,1149.2283 386.91331,990.04289 386.22219,832.48817 439.21578,675.23533 534.85076,550.02383 642.12478,409.57374 806.26913,309.73147 982.45635,295.87489 c 107.19095,-8.43024 218.25555,15.53183 307.25465,75.86535 39.7214,26.92759 74.8827,60.93754 101.2668,101.02196 26.3841,40.08442 43.8321,86.32188 48.2988,134.10191 4.4667,47.78002 -4.3133,97.03123 -26.9696,139.33459 -22.6563,42.30337 -59.3959,77.29874 -103.6296,95.90674 -12.9935,5.46602 -26.6008,9.55474 -39.0471,16.17263 -6.2232,3.30894 -12.1453,7.25617 -17.2424,12.12405 -5.0972,4.86788 -9.3593,10.68342 -11.9893,17.22254 -4.7593,11.83327 -3.8607,25.46785 0.763,37.35475 4.6237,11.88691 12.7268,22.16352 21.9966,30.92407 28.2811,26.72737 68.0541,40.01633 106.9412,38.61225 38.887,-1.40409 76.6601,-16.87414 107.3376,-40.81297 30.6775,-23.93882 54.4688,-56.03664 71.3354,-91.10362 16.8667,-35.06697 27.006,-73.08731 33.0203,-111.53212 9.1052,-58.20249 8.6729,-119.09787 -11.3798,-174.49032 z"
       id="path6846"
       inkscape:path-effect="#path-effect6848"
       inkscape:original-d="m 1570.4129,576.5767 c -3.7943,-58.16444 -60.6913,-88.50858 -91.0385,-132.76437 -30.3471,-44.25579 -743.47945,179.54901 -1115.22069,269.32201 -371.7412455,89.773 364.1547,657.50076 546.23055,986.24966 182.07584,328.7488 518.41424,-273.1143 777.61994,-409.673 259.2056,-136.5586 22.7606,-60.6912 34.1394,-91.0384 11.3788,-30.3471 -164.374,35.4048 -246.5624,53.1058 -82.1885,17.7009 -25.2875,93.5682 -37.9327,140.3509 -12.6452,46.7826 -141.6143,134.0298 -212.423,201.0432 -70.8087,67.0134 -235.18161,25.2894 -352.77391,37.9326 C 754.85929,1643.7484 654.9719,1497.0773 546.23056,1430.0619 437.48922,1363.0466 440.02006,1136.7169 386.91331,990.04289 333.80656,843.36887 485.53927,696.69785 534.85076,550.02383 584.16224,403.34981 833.25549,380.5922 982.45635,295.87489 c 149.20085,-84.71732 204.83745,50.5779 307.25465,75.86535 102.4173,25.28745 12.6453,313.5778 18.9664,470.3652 6.3211,156.78741 -45.5182,30.34715 -68.2788,45.51922 -22.7606,15.17207 15.174,45.52021 22.7596,68.27882 7.5855,22.7586 212.424,-136.55664 318.6345,-204.83646 106.2105,-68.27982 -7.5856,-116.32588 -11.3798,-174.49032 z" />
    <path
       style="fill:#000000;stroke:#000000;stroke-width:3.79327"
       d="M 923.6607,1698.9136 C 693.17929,1674.343 478.45715,1520.7462 379.60081,1309.7322 252.90403,1039.2913 304.93775,711.93772 509.48687,492.59543 765.57278,217.98919 1164.9073,184.46305 1442.2368,414.28639 c 103.1431,85.4748 148.7592,177.94821 141.8051,287.46815 -6.6117,104.12706 -38.4048,183.49986 -94.4213,235.72689 -52.2126,48.68041 -111.8216,65.12657 -170.1122,46.93414 -44.3454,-13.84019 -78.908,-49.05434 -79.0474,-80.53752 -0.095,-21.52505 16.243,-37.44911 55.1218,-53.72409 58.3112,-24.40952 93.3784,-55.20278 118.6163,-104.15919 19.5823,-37.98593 27.2427,-70.32248 27.2427,-114.99957 0,-109.85261 -63.5832,-210.93709 -173.5974,-275.98497 -115.1372,-68.07699 -274.1577,-81.04637 -419.44752,-34.20925 -47.59413,15.34294 -125.99805,55.15095 -169.40195,86.01047 -46.96101,33.38856 -127.89908,114.32695 -160.28143,160.28208 -32.1109,45.5699 -73.97564,126.77507 -91.68528,177.84224 -34.56973,99.68461 -47.84261,196.57681 -40.11429,292.83503 23.85034,297.0622 216.52821,533.6511 485.19892,595.7751 52.07496,12.0411 152.61565,13.8857 211.18035,3.8743 142.6689,-24.3885 264.335,-93.8796 325.5305,-185.9307 24.2298,-36.4469 34.3643,-62.8546 54.0793,-140.9155 21.0047,-83.1676 35.4955,-114.1253 69.4096,-148.2843 18.7871,-18.9228 30.3586,-27.0901 47.5834,-33.5846 86.5852,-32.6468 162.041,32.4673 131.319,113.3209 -15.9198,41.8975 -93.5079,141.9856 -164.0633,211.6402 -131.8575,130.1743 -278.379,207.9333 -449.0007,238.2847 -33.0181,5.8735 -143.39332,10.2778 -174.4903,6.9627 z"
       id="path6850" />
  </g>
</svg>
