<?xml version="1.0" encoding="UTF-8" standalone="no"?>
<!-- Created with Inkscape (http://www.inkscape.org/) -->

<svg
   width="2048px"
   height="2048px"
   viewBox="0 0 2048 2048"
   version="1.1"
   id="SVGRoot"
   sodipodi:docname="offvizIcon.svg"
   inkscape:version="1.2.2 (732a01da63, 2022-12-09)"
   xmlns:inkscape="http://www.inkscape.org/namespaces/inkscape"
   xmlns:sodipodi="http://sodipodi.sourceforge.net/DTD/sodipodi-0.dtd"
   xmlns="http://www.w3.org/2000/svg"
   xmlns:svg="http://www.w3.org/2000/svg">
  <sodipodi:namedview
     id="namedview5356"
     pagecolor="#ffffff"
     bordercolor="#000000"
     borderopacity="0.25"
     inkscape:showpageshadow="2"
     inkscape:pageopacity="0.0"
     inkscape:pagecheckerboard="0"
     inkscape:deskcolor="#d1d1d1"
     inkscape:document-units="px"
     showgrid="false"
     inkscape:zoom="0.26362494"
     inkscape:cx="861.07178"
     inkscape:cy="990.04289"
     inkscape:window-width="1920"
     inkscape:window-height="1017"
     inkscape:window-x="-8"
     inkscape:window-y="-8"
     inkscape:window-maximized="1"
     inkscape:current-layer="layer1" />
  <defs
     id="defs5351">
    <inkscape:path-effect
       effect="spiro"
       id="path-effect5368"
       is_visible="true"
       lpeversion="1" />
  </defs>
  <g
     inkscape:label="Слой 1"
     inkscape:groupmode="layer"
     id="layer1">
    <path
       style="font-variation-settings:normal;opacity:1;vector-effect:none;fill:#000000;fill-opacity:0;stroke:#000000;stroke-width:1;stroke-linecap:butt;stroke-linejoin:miter;stroke-miterlimit:4;stroke-dasharray:none;stroke-dashoffset:0;stroke-opacity:1;-inkscape-stroke:none;stop-color:#000000;stop-opacity:1"
       d="M 845.89871,716.92761 C 747.15525,582.17815 665.00791,435.21349 557.61036,307.25469 530.10543,274.48394 499.31144,241.8878 458.9854,227.59607 c -27.84597,-9.86874 -59.52846,-9.95844 -86.4562,2.1942 -13.46388,6.07632 -25.62035,15.12067 -35.04531,26.49467 -9.42496,11.37399 -16.07926,25.08051 -18.8494,39.58995 -4.50987,23.62177 1.38072,48.29409 12.03781,69.85223 10.6571,21.55814 25.85779,40.49151 41.06794,59.11887 110.52723,135.359 228.12823,264.74823 345.18737,394.49985 24.6658,27.34026 49.39784,54.8109 70.03058,85.30978 20.63274,30.49888 37.16759,64.33424 43.76745,100.56038 6.28086,34.4751 3.36726,70.238 -5.40319,104.1653 -8.77044,33.9273 -23.27292,66.1485 -40.11602,96.8779 -44.63122,81.4274 -105.45076,152.5698 -162.14687,226.1084 -56.69612,73.5385 -110.43574,151.6449 -137.52129,240.4635 -6.83497,22.4131 -11.93888,45.5498 -12.25301,68.9799 -0.31413,23.43 4.36245,47.2663 16.04628,67.5777 12.37095,21.5059 32.39498,38.3547 55.4084,47.6244 23.01343,9.2696 48.85592,11.0373 73.10434,5.7877 24.24841,-5.2496 46.85523,-17.3987 65.18411,-34.1199 18.32888,-16.7211 32.40685,-37.9288 41.48575,-61.0181 10.0054,-25.4456 13.95247,-52.7802 18.96634,-79.6586 36.44553,-195.3774 131.51477,-374.4002 231.38934,-546.2306 10.96915,-18.872 22.21347,-37.9605 37.93268,-53.1058 14.9555,-14.4095 33.977,-24.9062 54.4811,-28.205 20.5041,-3.2988 42.4297,0.9439 59.3169,13.032 10.5648,7.5624 18.9182,17.8964 25.5177,29.088 6.5994,11.1917 11.534,23.2749 16.2083,35.3975 44.866,116.3569 67.6483,239.8124 99.8412,360.2927 32.1929,120.4803 75.4183,241.0852 154.3077,337.6686 6.8089,8.3361 13.9622,16.5582 22.7596,22.7596 13.4665,9.4927 30.2072,13.7099 46.6831,13.6967 16.476,-0.013 32.7442,-4.0586 48.1486,-9.9034 33.8875,-12.8578 65.118,-35.5614 82.3089,-67.4699 8.5955,-15.9543 13.5052,-33.9951 13.324,-52.1166 -0.1813,-18.1215 -5.5585,-36.2805 -15.9743,-51.1106 -14.9513,-21.2877 -38.8406,-34.3813 -56.899,-53.1057 -11.9617,-12.4029 -21.2097,-27.1164 -30.3461,-41.726 -113.7873,-181.952 -225.7087,-369.1404 -280.7018,-576.5767 -16.7751,-63.27627 -27.9215,-131.23299 -7.5866,-193.45663 11.3017,-34.58243 31.7374,-65.38576 53.1058,-94.83169 105.4723,-145.3421 241.4982,-272.91184 307.2547,-440.01906 6.7584,-17.17512 12.7552,-34.8078 15.173,-53.10575 3.0479,-23.0669 0.1849,-47.08005 -9.5214,-68.22622 -9.7062,-21.14617 -26.4237,-39.25054 -47.3776,-49.36508 -24.9524,-12.04463 -54.8909,-12.1673 -80.8416,-2.45868 -25.9508,9.70862 -47.9214,28.72521 -63.3026,51.77116 -15.4322,23.12232 -24.3771,49.8367 -34.1394,75.86535 -72.5516,193.43991 -197.2634,362.74498 -284.495,550.02383 -6.2259,13.36654 -12.3024,26.89899 -20.6087,39.08223 -8.3063,12.18324 -19.0783,23.08404 -32.4971,29.19659 -10.6535,4.85292 -22.6394,6.49922 -34.2994,5.45365 -11.66,-1.04557 -23.00238,-4.72051 -33.43416,-10.03339 -20.86355,-10.62577 -37.82523,-27.47759 -53.651,-44.73274 -28.57834,-31.15953 -54.66748,-64.52099 -79.65863,-98.62496 z"
       id="path5366"
       inkscape:path-effect="#path-effect5368"
       inkscape:original-d="M 845.89871,716.92761 C 819.34484,684.05162 653.70748,443.81333 557.61036,307.25469 461.51325,170.69605 491.86139,254.14994 458.9854,227.59607 c -32.87599,-26.55388 -93.56627,45.52021 -140.35091,68.27882 -46.78463,22.7586 35.40484,85.98173 53.10575,128.9711 17.70092,42.98937 230.12591,263.0009 345.18737,394.49985 115.06145,131.49895 75.86635,123.91441 113.79803,185.87016 37.93168,61.9557 -30.34514,134.0298 -45.51921,201.0432 -15.17407,67.0133 -199.77777,311.0489 -299.66816,466.5719 -99.89038,155.523 2.52985,91.0394 3.79327,136.5576 1.26342,45.5182 156.7894,-27.8163 235.1826,-41.7259 78.3932,-13.9097 12.64523,-53.1048 18.96634,-79.6586 6.32112,-26.5539 154.26056,-364.1527 231.38934,-546.2306 77.12878,-182.07785 25.28948,-35.4028 37.93268,-53.1058 12.6432,-17.7029 75.8663,-10.1143 113.798,-15.173 37.9317,-5.0587 27.8183,42.9913 41.726,64.4855 13.9076,21.4942 169.4336,465.3085 254.1489,697.9613 84.7153,232.6528 15.1741,15.1741 22.7596,22.7596 7.5856,7.5855 63.2221,2.5299 94.8317,3.7933 31.6096,1.2634 53.1068,-113.7971 79.6586,-170.6971 26.5519,-56.9 -37.9316,-35.4028 -56.899,-53.1057 -18.9673,-17.7029 -20.2297,-27.8163 -30.3461,-41.726 -10.1164,-13.9096 -187.1336,-384.3834 -280.7018,-576.5767 -93.5683,-192.1932 -5.0567,-128.97007 -7.5866,-193.45663 -2.5298,-64.48655 35.4049,-63.22013 53.1058,-94.83169 17.7009,-31.61157 204.8374,-293.34504 307.2547,-440.01906 102.4172,-146.67402 10.1163,-35.40283 15.173,-53.10575 5.0567,-17.70292 -37.9316,-78.3932 -56.899,-117.5913 -18.9673,-39.198102 -96.0951,32.87599 -144.1442,49.31248 -48.049,16.43649 -22.7586,50.5779 -34.1394,75.86535 -11.3808,25.28746 -189.6624,366.68356 -284.495,550.02383 -94.8327,183.34028 -35.4029,45.52021 -53.1058,68.27882 -17.7029,22.75861 -80.92204,-32.87399 -121.38456,-49.31248 -40.46253,-16.43849 -53.10475,-65.74897 -79.65863,-98.62496 z" />
    <path
       style="fill:#000000;stroke:#000000;stroke-width:3.79327"
       d="m 1458.393,1863.1112 c -27.1607,-12.3837 -74.827,-78.7942 -113.3259,-157.8899 -33.704,-69.2447 -63.3332,-161.7321 -102.7325,-320.6786 -32.5154,-131.1753 -65.1159,-238.7498 -83.1211,-274.2813 -16.4402,-32.4433 -47.4747,-53.7481 -78.392,-53.8152 -5.3587,-0.011 -18.9293,2.7069 -30.157,6.0412 -32.6324,9.6908 -54.90542,35.891 -103.06141,121.2333 -120.82924,214.1346 -171.71714,338.3203 -205.94603,502.5862 -16.6969,80.1291 -27.55764,105.654 -57.84083,135.9372 -73.20509,73.205 -189.83065,41.8161 -205.39551,-55.2808 -7.14849,-44.5937 7.75007,-104.094 43.91947,-175.401 26.48443,-52.2133 63.94868,-107.1873 135.9118,-199.433 103.13298,-132.2008 151.11183,-212.0094 168.62849,-280.4989 9.33717,-36.5081 10.17616,-93.1808 1.85252,-125.13744 C 814.35598,931.29575 784.67484,889.63835 666.91798,759.38584 500.06126,574.82326 364.08081,415.44556 340.63794,376.96491 c -7.71792,-12.6687 -15.96989,-32.36595 -18.33771,-43.77165 -16.08389,-77.47567 65.7354,-134.19946 143.77703,-99.67794 55.74993,24.66084 113.97598,95.13492 265.28168,321.08444 170.91065,255.22627 227.45488,317.78969 286.93666,317.48164 21.25,-0.11 39.8595,-8.24899 54.2003,-23.70466 5.1361,-5.53552 27.0297,-45.05746 48.6523,-87.82655 21.6226,-42.7691 68.49,-128.97111 104.1498,-191.56002 78.5061,-137.79147 127.0433,-233.93382 158.9466,-314.84123 13.1627,-33.38076 29.004,-68.75323 35.2029,-78.60549 33.2747,-52.88522 94.0541,-74.23471 142.545,-50.07068 51.8311,25.82854 69.2533,85.90154 44.469,153.33241 -32.9199,89.56519 -81.8056,164.96126 -206.5981,318.63449 -107.14,131.93536 -137.8951,175.55907 -154.0735,218.54101 -25.2123,66.98308 -15.1948,160.88599 31.4947,295.22562 42.1061,121.1521 101.6377,238.9501 218.2413,431.8449 42.2985,69.9733 49.72,79.9892 84.9205,114.6068 44.8167,44.0745 51.4174,55.1379 51.4174,86.1809 0,45.9165 -31.5891,88.088 -84.1355,112.321 -25.2675,11.6528 -71.1871,15.2259 -89.3353,6.9513 z"
       id="path5370" />
  </g>
</svg>
