<?xml version="1.0" encoding="UTF-8" standalone="no"?>
<!-- Created with Inkscape (http://www.inkscape.org/) -->

<svg
   width="2048px"
   height="2048px"
   viewBox="0 0 2048 2048"
   version="1.1"
   id="SVGRoot"
   sodipodi:docname="resetIcon.svg"
   inkscape:version="1.2.2 (732a01da63, 2022-12-09)"
   xmlns:inkscape="http://www.inkscape.org/namespaces/inkscape"
   xmlns:sodipodi="http://sodipodi.sourceforge.net/DTD/sodipodi-0.dtd"
   xmlns="http://www.w3.org/2000/svg"
   xmlns:svg="http://www.w3.org/2000/svg">
  <sodipodi:namedview
     id="namedview8316"
     pagecolor="#ffffff"
     bordercolor="#000000"
     borderopacity="0.25"
     inkscape:showpageshadow="2"
     inkscape:pageopacity="0.0"
     inkscape:pagecheckerboard="0"
     inkscape:deskcolor="#d1d1d1"
     inkscape:document-units="px"
     showgrid="false"
     inkscape:zoom="0.26362494"
     inkscape:cx="1126.6005"
     inkscape:cy="917.9708"
     inkscape:window-width="1920"
     inkscape:window-height="1017"
     inkscape:window-x="-8"
     inkscape:window-y="-8"
     inkscape:window-maximized="1"
     inkscape:current-layer="layer1" />
  <defs
     id="defs8311">
    <inkscape:path-effect
       effect="spiro"
       id="path-effect8328"
       is_visible="true"
       lpeversion="1" />
  </defs>
  <g
     inkscape:label="Слой 1"
     inkscape:groupmode="layer"
     id="layer1">
    <path
       style="font-variation-settings:normal;opacity:1;vector-effect:none;fill:#000000;fill-opacity:0;stroke:#000000;stroke-width:1;stroke-linecap:butt;stroke-linejoin:miter;stroke-miterlimit:4;stroke-dasharray:none;stroke-dashoffset:0;stroke-opacity:1;-inkscape-stroke:none;stop-color:#000000;stop-opacity:1"
       d="m 1661.4513,1540.0667 c 13.6916,22.4077 21.3268,48.4024 22.4564,74.6377 1.1297,26.2353 -4.1979,52.6652 -14.9196,76.6363 -21.4434,47.9421 -64.3858,84.9416 -113.7483,102.875 -36.4703,13.2497 -76.2559,16.6009 -114.7151,11.4502 -38.4591,-5.1507 -75.5979,-18.6631 -109.331,-37.8389 -67.4663,-38.3516 -120.3458,-98.3557 -162.8672,-163.2747 -67.7637,-103.4574 -111.6315,-220.3218 -158.1141,-334.9286 -46.48254,-114.6069 -97.08931,-229.6184 -175.69349,-325.10003 -7.66435,-9.31 -15.6752,-18.56078 -20.77654,-29.48756 -2.55068,-5.4634 -4.34152,-11.32268 -4.83203,-17.33217 -0.4905,-6.00949 0.35287,-12.17727 2.84896,-17.66582 2.25939,-4.96809 5.84253,-9.30215 10.18695,-12.6056 4.34442,-3.30346 9.43604,-5.58557 14.75364,-6.81438 10.6352,-2.45764 21.96651,-0.67041 31.99277,3.64484 20.05252,8.6305 34.43982,26.3151 49.27814,42.32802 56.68403,61.17117 131.2123,105.6014 211.9723,126.4058 80.76,20.8043 167.4689,17.9144 246.6751,-8.1888 79.2061,-26.10318 150.6364,-75.32502 203.2583,-140.02371 52.622,-64.69869 86.2578,-144.64854 95.7486,-227.50333 9.4907,-82.85479 -5.1917,-168.33026 -41.7566,-243.28354 -36.565,-74.95329 -94.8841,-139.13114 -165.9878,-182.71146 -71.1038,-43.58032 -154.7494,-66.41936 -238.1348,-65.05536 -83.3854,1.36399 -166.2303,26.92206 -235.90974,72.74527 -9.97254,6.55823 -19.71497,13.54048 -30.34615,18.96634 -22.0807,11.26939 -47.28283,15.39672 -72.07208,15.17307 -35.36629,-0.31907 -70.04803,-9.12441 -105.15367,-13.4221 -35.10564,-4.2977 -72.5002,-3.64753 -103.47606,13.4221 -28.10729,15.48887 -47.99071,43.15804 -59.7993,72.99899 -11.80859,29.84094 -16.30997,62.00923 -19.85932,93.90479 -26.54461,238.53798 -4.91392,480.23788 -27.19451,719.21184 -11.14029,119.487 -33.47146,238.6688 -77.14455,350.445 -43.6731,111.7761 -109.41846,216.2048 -199.12237,295.9196 -11.63374,10.3383 -23.68828,20.2871 -34.06845,31.8835 -10.38017,11.5963 -19.12702,25.072 -22.83056,40.1885 -4.0155,16.3898 -1.79285,34.066 5.24783,49.4015 7.04069,15.3355 18.73779,28.3448 32.68484,37.8437 15.06182,10.2581 32.72039,16.5104 50.80252,18.7739 18.08213,2.2636 36.57204,0.5941 54.17187,-4.1317 35.19967,-9.4515 66.27529,-30.8272 92.27554,-56.3681 60.19352,-59.13 94.72202,-139.6645 117.67404,-220.8607 22.95203,-81.1962 35.79453,-165.065 60.60954,-245.7113 27.51676,-89.4267 69.93222,-175.9458 75.86536,-269.322 0.62004,-9.7583 0.84729,-19.6325 3.30803,-29.0957 1.23037,-4.7317 3.02411,-9.3408 5.60227,-13.4948 2.57817,-4.1539 5.95908,-7.8474 10.05604,-10.5152 4.47258,-2.9124 9.72919,-4.5474 15.05129,-4.9488 5.32209,-0.4013 10.70557,0.4094 15.76471,2.1097 10.11826,3.4006 18.76917,10.2371 26.08301,18.0121 24.8104,26.3748 35.2877,62.9916 41.72595,98.625 11.61454,64.2822 12.77623,129.914 17.10773,195.0933 4.33151,65.1792 12.07612,131.0348 35.99802,191.82 41.89795,106.4621 133.00657,190.5364 239.58187,232.1456 106.5753,41.6092 227.0565,42.2965 336.9948,10.6235 37.2043,-10.7185 73.6132,-25.1405 106.134,-46.1511 32.5208,-21.0106 61.1123,-48.876 79.7362,-82.82 27.6387,-50.3744 31.6211,-109.7929 37.9326,-166.9037 3.2807,-29.6862 7.4521,-59.687 18.9664,-87.2452 5.459,-13.0657 12.5058,-25.4186 18.0362,-38.4542 5.5304,-13.0356 9.5638,-27.0829 8.5166,-41.2044 -0.7801,-10.5195 -4.4194,-20.7971 -10.3278,-29.5355 -5.9085,-8.7384 -14.0623,-15.9263 -23.4143,-20.8058 -18.7039,-9.759 -41.9592,-9.781 -61.0973,-0.9036 -19.1381,8.8773 -33.9466,26.2351 -40.6209,46.2483 -6.6744,20.0132 -5.3646,42.3994 2.696,61.8956 10.4763,25.3392 31.2228,44.8813 45.5192,68.2788 z"
       id="path8326"
       inkscape:path-effect="#path-effect8328"
       inkscape:original-d="m 1661.4513,1540.0667 c 15.1721,22.7586 -70.8067,169.4336 -106.2115,254.149 -35.4048,84.7153 -257.9412,-126.4413 -386.9133,-189.6634 C 1039.3544,1541.3301 945.7891,1164.5342 834.51891,944.52367 723.24872,724.51314 819.34684,901.53431 811.7593,880.03812 c -7.58753,-21.49618 70.80867,17.70292 106.2115,26.55288 35.40283,8.84995 50.5779,-445.07575 75.86536,-667.61513 25.28744,-222.539376 -20.22977,12.64523 -30.34615,18.96634 -10.11638,6.32111 -48.04706,10.11638 -72.07208,15.17307 -24.02503,5.05669 -139.08549,0.001 -208.62973,0 -69.54424,-10e-4 -53.10475,111.27019 -79.65862,166.90378 -26.55388,55.6336 -202.30662,910.38524 -303.46143,1365.57644 -101.1548,455.1911 -37.93167,48.049 -56.89901,72.072 -18.96734,24.0231 25.28945,58.1645 37.93267,87.2452 12.64323,29.0807 131.50095,-27.8163 197.24993,-41.7259 65.74897,-13.9097 118.85672,-311.047 178.28358,-466.572 59.42687,-155.525 50.57791,-179.547 75.86536,-269.322 25.28745,-89.775 12.64523,-35.4028 18.96634,-53.1057 6.32111,-17.703 37.93368,10.1163 56.89901,15.173 18.96534,5.0567 27.8183,65.751 41.72595,98.625 13.90765,32.874 35.40483,257.9432 53.10575,386.9133 17.70092,128.9701 384.38547,161.8471 576.57667,242.7691 192.1913,80.9221 123.9144,-85.9797 185.8702,-128.9711 61.9557,-42.9913 25.2894,-111.2681 37.9326,-166.9037 12.6433,-55.6356 12.6453,-58.1625 18.9664,-87.2452 6.3211,-29.0827 17.7029,-53.1047 26.5528,-79.6586 8.85,-26.5539 -88.5085,37.9337 -132.7643,56.899 -44.2558,18.9653 30.3471,45.5202 45.5192,68.2788 z" />
    <path
       style="fill:#000000;stroke:#000000;stroke-width:3.79327"
       d="m 308.80424,1975.0585 c -49.15776,-16.9929 -76.19963,-63.9912 -60.48901,-105.1288 4.82304,-12.629 18.94234,-29.1336 55.84104,-65.2748 57.11885,-55.9462 83.68317,-87.2343 116.75235,-137.5137 80.51054,-122.4107 132.20404,-281.5006 153.4533,-472.2619 9.67718,-86.8751 13.15438,-168.0831 15.51126,-362.25702 4.74793,-391.16377 16.32872,-482.56551 67.80302,-535.13762 34.88069,-35.6246 75.32474,-43.40142 158.69469,-30.51474 90.25258,13.95054 122.2799,9.90397 172.95021,-21.8518 62.4163,-39.11712 116.1248,-60.24553 179.1096,-70.46 89.0509,-14.4417 183.8445,0.49577 266.2268,41.95172 101.7451,51.19961 183.5793,146.34198 218.7198,254.28891 16.1037,49.4683 21.2384,84.40068 20.8306,141.71399 -0.5218,73.33783 -15.0237,131.64612 -49.0311,197.1411 -22.7865,43.88462 -48.1983,76.62128 -90.4015,116.45931 -139.7662,131.93375 -347.5241,155.16715 -515.1914,57.61352 -32.80834,-19.08882 -73.81615,-52.17029 -107.303,-86.5626 -34.62745,-35.5637 -43.56762,-40.03354 -76.98608,-38.49085 -14.60195,0.67402 -27.32879,16.76715 -27.32879,34.55731 0,19.01227 4.99513,29.00063 30.34395,60.67631 62.60526,78.23106 104.50229,158.55056 183.87072,352.49306 94.8581,231.7923 140.9354,313.9141 221.7683,395.2487 59.4082,59.7769 117.4865,92.1912 186.6121,104.1509 124.1521,21.4801 237.9026,-50.4861 253.4874,-160.3731 6.7972,-47.9262 -4.7645,-87.0582 -39.6131,-134.0754 -24.1145,-32.5348 -32.13,-50.9464 -32.13,-73.8025 0,-46.4976 37.6927,-82.3322 80.5542,-76.5833 17.8773,2.3978 31.5423,11.5465 43.5087,29.1289 13.2868,19.5222 11.3694,39.8015 -8.0225,84.8533 -18.0595,41.9562 -22.013,59.1009 -30.738,133.2981 -3.1894,27.1219 -8.5568,61.2613 -11.9276,75.8654 -23.0898,100.0382 -95.8543,162.3478 -228.797,195.9229 -215.4686,54.4172 -422.5064,-23.0723 -527.24101,-197.3343 -37.08814,-61.709 -53.0127,-133.0513 -62.76462,-281.1871 -9.64488,-146.5099 -19.80393,-200.4702 -44.72399,-237.5536 -16.12788,-23.9998 -33.65729,-35.5616 -53.9166,-35.5616 -23.24329,0 -31.96196,10.9494 -36.6919,46.0797 -9.98498,74.1614 -16.88846,101.6777 -50.77426,202.3793 -26.6999,79.3466 -42.09343,133.4848 -60.85903,214.0379 -34.57978,148.4367 -59.3757,216.9962 -100.25143,277.1903 -59.84745,88.132 -143.06106,130.3095 -210.85612,106.8741 z"
       id="path8330" />
  </g>
</svg>
