<?xml version="1.0" encoding="UTF-8" standalone="no"?>
<!-- Created with Inkscape (http://www.inkscape.org/) -->

<svg
   width="2048px"
   height="2048px"
   viewBox="0 0 2048 2048"
   version="1.1"
   id="SVGRoot"
   sodipodi:docname="restartIcon.svg"
   inkscape:version="1.2.2 (732a01da63, 2022-12-09)"
   xmlns:inkscape="http://www.inkscape.org/namespaces/inkscape"
   xmlns:sodipodi="http://sodipodi.sourceforge.net/DTD/sodipodi-0.dtd"
   xmlns="http://www.w3.org/2000/svg"
   xmlns:svg="http://www.w3.org/2000/svg">
  <sodipodi:namedview
     id="namedview9070"
     pagecolor="#ffffff"
     bordercolor="#000000"
     borderopacity="0.25"
     inkscape:showpageshadow="2"
     inkscape:pageopacity="0.0"
     inkscape:pagecheckerboard="0"
     inkscape:deskcolor="#d1d1d1"
     inkscape:document-units="px"
     showgrid="false"
     inkscape:zoom="0.26362494"
     inkscape:cx="1414.8889"
     inkscape:cy="1225.2255"
     inkscape:window-width="1920"
     inkscape:window-height="1017"
     inkscape:window-x="-8"
     inkscape:window-y="-8"
     inkscape:window-maximized="1"
     inkscape:current-layer="layer1" />
  <defs
     id="defs9065">
    <inkscape:path-effect
       effect="spiro"
       id="path-effect9082"
       is_visible="true"
       lpeversion="1" />
  </defs>
  <g
     inkscape:label="Слой 1"
     inkscape:groupmode="layer"
     id="layer1">
    <path
       style="font-variation-settings:normal;opacity:1;vector-effect:none;fill:#000000;fill-opacity:0;stroke:#000000;stroke-width:1;stroke-linecap:butt;stroke-linejoin:miter;stroke-miterlimit:4;stroke-dasharray:none;stroke-dashoffset:0;stroke-opacity:1;-inkscape-stroke:none;stop-color:#000000;stop-opacity:1"
       d="M 1722.1436,1103.8409 C 1710.6231,974.40817 1695.1125,844.7365 1660.8127,719.40064 1626.5128,594.06479 1572.6974,472.59094 1490.7542,371.74024 1404.5148,265.60208 1287.9629,184.52228 1158.7301,139.78508 1029.4973,95.047881 888.00029,86.689827 754.22263,115.08136 620.44497,143.4729 494.72768,208.44218 393.6171,300.52471 292.50652,392.60724 216.18801,511.50864 173.7749,641.52275 c -42.41312,130.01411 -50.91082,270.82487 -25.26948,405.15675 25.64134,134.3319 85.28757,261.9315 171.25223,368.2923 171.92932,212.7216 450.25715,332.9771 723.39095,318.5516 99.3563,-5.2475 199.5085,-27.924 284.4951,-79.6587 95.8139,-58.3258 167.734,-151.265 212.423,-254.1489 74.6101,-171.769 74.5987,-374.4566 0,-546.23055 C 1469.6573,691.35785 1330.9976,556.9826 1161.8417,505.70823 1077.2638,480.07104 986.23422,475.16707 899.78284,493.52059 813.33145,511.87411 731.70827,553.65905 667.61513,614.50938 605.90567,673.09662 560.70407,749.49745 542.06414,832.522 c -18.63994,83.02454 -10.15198,172.3913 26.55677,249.1571 36.70876,76.7658 101.90703,140.0797 180.88247,171.7562 78.97544,31.6765 171.07631,30.6588 248.12604,-5.4502 37.74448,-17.6888 71.95518,-43.6795 96.78978,-77.1576 24.8347,-33.478 39.9403,-74.6157 39.7679,-116.2991 -0.1213,-29.3229 -7.7979,-58.61559 -22.3038,-84.09944 -14.5059,-25.48385 -35.8312,-47.08263 -61.2603,-61.68423 -25.4291,-14.60161 -54.90652,-22.13822 -84.21687,-21.27117 -29.31035,0.86706 -58.3587,10.1682 -82.57474,26.70397 -21.8123,14.89439 -39.64158,35.60328 -50.97228,59.46193 -11.3307,23.85864 -16.11432,50.81164 -13.51327,77.09574 1.60847,16.2539 6.05887,32.3637 14.26008,46.4887 8.20121,14.125 20.28434,26.1928 35.0524,33.1699 9.95311,4.7023 21.04404,7.0428 32.03953,6.5182 10.99549,-0.5246 21.87134,-3.939 31.06189,-9.9979 9.19054,-6.0588 16.65122,-14.7693 21.00505,-24.8797 4.35384,-10.1104 5.54986,-21.5922 3.13869,-32.3329 -2.88818,-12.8655 -10.60004,-24.0145 -17.47493,-35.2661 -3.43744,-5.6258 -6.71285,-11.3837 -9.11917,-17.5217 -2.40632,-6.138 -3.93019,-12.6938 -3.75204,-19.28428 0.32381,-11.97933 6.48133,-23.51787 15.79316,-31.06101 9.31183,-7.54314 21.54571,-11.15664 33.51932,-10.66493 15.08173,0.61935 29.46858,7.50608 40.91798,17.34241 11.4494,9.83634 20.18,22.4863 27.3608,35.76331 12.2913,22.7263 20.4182,47.9323 21.7368,73.7359 1.3187,25.8035 -4.391,52.2041 -17.9435,74.2016 -16.1269,26.1761 -42.7422,45.0352 -71.92532,54.7106 -29.1831,9.6753 -60.79035,10.6098 -91.18519,5.9817 -46.17569,-7.031 -90.33113,-26.8957 -126.21565,-56.7943 -35.88453,-29.8987 -63.39409,-69.7465 -78.62081,-113.9028 -15.03038,-43.5869 -18.04156,-91.38671 -7.64807,-136.30559 10.39349,-44.91887 34.28346,-86.76509 68.34035,-117.84335 39.67973,-36.20932 92.18588,-57.03744 145.65206,-62.23012 53.46618,-5.19268 107.79474,4.69803 157.80933,24.29745 55.1172,21.59902 105.7327,55.16555 145.6937,98.84108 39.9609,43.67553 69.0714,97.51688 81.9024,155.30783 18.4582,83.1362 1.4663,174.4037 -49.3125,242.7692 -33.2081,44.7093 -79.5508,78.8046 -130.4073,101.5052 -50.8565,22.7006 -106.16245,34.3586 -161.6743,38.8457 -82.8425,6.6963 -167.56929,-2.5736 -245.08612,-32.5546 -77.51682,-29.981 -147.53448,-81.25 -194.93294,-149.5223 -37.91347,-54.6102 -60.75953,-119.0046 -69.8012,-184.8677 -9.04168,-65.8632 -4.55807,-133.19144 9.10892,-198.25233 14.48897,-68.97387 39.43199,-136.06021 76.73124,-195.86063 37.29925,-59.80043 87.16787,-112.19355 147.07156,-149.32673 61.00636,-37.8167 131.30008,-59.21049 202.52796,-68.0687 71.22788,-8.85821 143.53287,-5.50734 214.73148,3.58314 121.3051,15.48797 241.412,48.04118 348.9806,106.2115 81.4135,44.02632 156.7811,104.58454 201.0432,185.87012 39.3574,72.2783 51.7762,156.71354 49.3125,238.97587 -2.0043,66.92266 -13.4473,133.57496 -34.1394,197.24996 -6.6018,20.3155 -14.2425,41.0296 -12.8804,62.3473 0.681,10.6589 3.7247,21.3116 9.8023,30.0945 6.0775,8.7829 15.3472,15.5568 25.8377,17.5629 6.2722,1.1995 12.8276,0.6904 18.9313,-1.187 6.1036,-1.8775 11.7594,-5.1005 16.6787,-9.1723 9.8386,-8.1437 16.5946,-19.4889 21.289,-31.3666 13.6401,-34.5117 10.8766,-73.0415 7.5866,-110.0048 z"
       id="path9080"
       inkscape:path-effect="#path-effect9082"
       inkscape:original-d="m 1722.1436,1103.8409 c 2.5278,-36.6692 -154.2586,-488.0661 -231.3894,-732.10066 -77.1307,-244.03456 -298.4027,907.85646 -447.6056,1361.78316 -149.20283,453.9267 189.6644,-53.1048 284.4951,-79.6587 94.8307,-26.5538 141.6163,-169.4316 212.423,-254.1489 70.8067,-84.7173 10e-4,-364.1527 0,-546.23055 C 1540.0657,671.4074 958.43332,694.169 667.61513,614.50938 376.79693,534.84976 887.62566,1036.8275 997.62942,1247.9851 1107.6332,1459.1427 1088.6688,1119.015 1134.1871,1054.5284 1179.7053,990.04189 967.28428,960.96217 883.83139,914.17753 800.3785,867.3929 840.84202,1005.217 819.34584,1050.7352 c -21.49619,45.5182 32.87599,53.1067 49.31248,79.6586 16.43649,26.5519 58.16444,-40.4605 87.24516,-60.6923 29.08072,-20.2318 -20.22976,-48.047 -30.34614,-72.07208 -10.11639,-24.02503 32.87598,-27.81629 49.31248,-41.72594 16.43649,-13.90965 45.52018,35.40483 68.27878,53.10572 22.7586,17.7009 2.5299,98.626 3.7933,147.9375 1.2634,49.3115 -108.73934,40.4625 -163.11051,60.6923 -54.37117,20.2297 -136.55664,-113.7971 -204.83646,-170.6971 -68.27982,-56.90001 40.46252,-169.43162 60.69228,-254.14894 20.22977,-84.71731 202.30862,-25.28745 303.46139,-37.93267 101.1528,-12.64523 151.7317,169.43362 227.5961,254.14891 75.8644,84.7153 -32.874,161.8471 -49.3125,242.7692 -16.4385,80.922 -194.7201,93.5682 -292.0816,140.3509 C 831.98906,1438.9119 636.00556,1270.7457 489.33154,1210.0524 342.65752,1149.3591 448.87102,954.64006 428.63926,826.93237 408.4075,699.22469 577.84212,596.80846 652.44206,481.74501 c 74.59993,-115.06346 278.17397,-42.98937 417.25944,-64.48556 139.0855,-21.49618 232.6548,70.80867 348.9806,106.2115 116.3259,35.40283 134.0298,123.91442 201.0432,185.87012 67.0134,61.95571 32.876,159.31825 49.3125,238.97587 16.4365,79.65766 -22.7586,131.50096 -34.1394,197.24996 -11.3808,65.7489 15.1741,73.3375 22.7596,110.0047 7.5856,36.6673 37.9337,-27.8163 56.899,-41.7259 18.9654,-13.9097 5.0587,-73.3355 7.5866,-110.0048 z" />
    <path
       style="fill:#000000;stroke:#000000;stroke-width:3.79327"
       d="M 906.591,1727.3954 C 607.12415,1693.2153 345.29789,1511.8212 220.08001,1251.7784 27.562646,851.9731 181.49751,380.95342 568.96657,184.23303 c 73.48561,-37.30909 142.54585,-59.78905 229.67922,-74.7634 53.73956,-9.23544 171.36288,-9.23858 226.96891,-0.006 215.3896,35.76209 392.6834,150.98491 511.5454,332.45212 78.5444,119.91407 133.3759,282.62223 161.8868,480.38568 13.7557,95.41547 23.9236,206.62387 22.0541,241.21157 -2.8726,53.1481 -26.2568,90.1621 -56.9615,90.1621 -13.1714,0 -31.5595,-16.2803 -36.997,-32.756 -5.4399,-16.4831 -3.366,-30.6911 11.556,-79.1676 26.7479,-86.8949 37.7514,-181.35295 30.4871,-261.71321 C 1654.4237,716.73832 1580.3929,609.80216 1421.4166,522.14046 1236.3191,420.07512 942.36773,378.27792 766.95709,429.08227 613.84025,473.42963 500.02526,588.78226 445.67207,754.70783 407.22309,872.0822 403.10199,1002.2645 434.66708,1102.3471 c 39.38511,124.8775 132.90186,218.5473 264.19376,264.6262 131.0387,45.99 304.65436,36.4631 416.05146,-22.8303 107.4184,-57.1757 164.1849,-150.802 163.9035,-270.3296 -0.3008,-127.69397 -76.2651,-243.63619 -200.0485,-305.32785 -178.9925,-89.20692 -366.00136,-27.39433 -407.45207,134.67637 -33.20569,129.83308 42.98122,266.28838 171.31095,306.82798 91.88247,29.0259 176.88252,4.7272 211.24862,-60.389 9.2132,-17.4571 10.1351,-23.0088 10.1183,-60.9331 -0.019,-38.8011 -0.8472,-43.4821 -11.8406,-66.7799 -13.7228,-29.08222 -34.1041,-53.14751 -52.34054,-61.80124 -30.43806,-14.44382 -63.87647,-2.21952 -74.08563,27.08393 -5.45973,15.67111 -5.34753,16.19511 10.1298,47.29221 20.25325,40.6929 20.83999,42.8642 16.21926,60.0243 -7.35704,27.322 -40.96911,45.3739 -69.70907,37.4384 -21.51682,-5.9411 -46.15061,-30.5015 -53.85375,-53.6935 -24.86923,-74.8743 20.25719,-156.54528 100.12835,-181.21495 55.84051,-17.24738 113.75468,-0.84718 156.45888,44.30621 50.8737,53.79142 59.6733,130.00254 23.1448,200.45034 -28.1058,54.2041 -84.779,97.7916 -156.13439,120.0834 -24.36837,7.6127 -36.33973,8.8838 -83.45189,8.8605 -45.72606,-0.023 -59.99186,-1.4686 -84.58676,-8.5744 C 615.30065,1213.3833 510.75376,1039.6496 540.43809,857.27852 570.10425,675.01924 722.35445,528.34409 918.8871,492.68748 c 47.88565,-8.68779 130.219,-8.54168 177.3673,0.31485 226.992,42.63883 410.9354,220.41097 473.9719,458.07046 75.937,286.29691 -45.5373,601.40991 -276.722,717.83621 -59.7133,30.072 -131.7723,50.2741 -209.4285,58.7144 -42.5291,4.6223 -136.04161,4.5022 -177.4848,-0.228 z"
       id="path9084" />
  </g>
</svg>
