<?xml version="1.0" encoding="UTF-8" standalone="no"?>
<!-- Created with Inkscape (http://www.inkscape.org/) -->

<svg
   width="2048px"
   height="2048px"
   viewBox="0 0 2048 2048"
   version="1.1"
   id="SVGRoot"
   sodipodi:docname="visualIcon.svg"
   inkscape:version="1.2.2 (732a01da63, 2022-12-09)"
   xmlns:inkscape="http://www.inkscape.org/namespaces/inkscape"
   xmlns:sodipodi="http://sodipodi.sourceforge.net/DTD/sodipodi-0.dtd"
   xmlns="http://www.w3.org/2000/svg"
   xmlns:svg="http://www.w3.org/2000/svg">
  <sodipodi:namedview
     id="namedview4602"
     pagecolor="#ffffff"
     bordercolor="#000000"
     borderopacity="0.25"
     inkscape:showpageshadow="2"
     inkscape:pageopacity="0.0"
     inkscape:pagecheckerboard="0"
     inkscape:deskcolor="#d1d1d1"
     inkscape:document-units="px"
     showgrid="false"
     inkscape:zoom="0.26362494"
     inkscape:cx="1293.5043"
     inkscape:cy="785.20643"
     inkscape:window-width="1920"
     inkscape:window-height="1017"
     inkscape:window-x="-8"
     inkscape:window-y="-8"
     inkscape:window-maximized="1"
     inkscape:current-layer="layer1" />
  <defs
     id="defs4597">
    <inkscape:path-effect
       effect="spiro"
       id="path-effect4614"
       is_visible="true"
       lpeversion="1" />
  </defs>
  <g
     inkscape:label="Слой 1"
     inkscape:groupmode="layer"
     id="layer1">
    <path
       style="font-variation-settings:normal;opacity:1;vector-effect:none;fill:#000000;fill-opacity:0;stroke:#000000;stroke-width:1;stroke-linecap:butt;stroke-linejoin:miter;stroke-miterlimit:4;stroke-dasharray:none;stroke-dashoffset:0;stroke-opacity:1;-inkscape-stroke:none;stop-color:#000000;stop-opacity:1"
       d="m 356.56717,1411.0956 c 26.55069,2.7261 53.30025,-0.3557 79.93343,-2.1005 26.63319,-1.7448 53.91132,-2.0763 79.38382,5.8938 20.07459,6.2812 38.42451,17.6185 53.75434,32.0212 15.32983,14.4027 27.68708,31.8225 37.1647,50.6006 18.95525,37.5561 26.29954,79.9259 29.43465,121.8775 3.1351,41.9516 2.29897,84.1437 6.04194,126.0454 3.74297,41.9018 12.35133,84.1576 32.92161,120.8541 16.6548,29.7114 40.9591,55.0762 69.86942,73.0857 28.91031,18.0096 62.36129,28.6375 96.35754,30.7364 67.99251,4.1977 137.00803,-27.3912 178.96038,-81.0625 28.3901,-36.3206 44.2273,-80.5838 60.9315,-123.5507 16.7041,-42.9669 35.4714,-86.5917 68.0396,-119.2184 40.2683,-40.3407 98.2903,-59.5628 155.2603,-61.3869 56.9701,-1.8241 113.3257,12.3331 167.1675,31.0408 37.0556,12.8752 73.5164,27.9994 111.8704,36.2375 38.3539,8.2382 79.5074,9.1794 115.7257,-5.8914 26.7469,-11.1297 49.7104,-30.7131 65.9875,-54.6782 16.2771,-23.965 25.9572,-52.1813 29.1006,-80.9804 6.287,-57.5981 -13.4786,-115.9057 -45.7757,-164.0095 -19.0482,-28.3706 -42.2992,-53.6798 -62.1934,-81.4637 -19.8942,-27.7839 -36.7112,-59.0358 -40.2248,-93.0267 -2.642,-25.5585 2.4328,-51.5199 11.8797,-75.4149 9.447,-23.895 23.1561,-45.8872 38.147,-66.7556 29.9817,-41.73685 65.7333,-80.15866 86.531,-127.15147 19.0168,-42.96875 24.3622,-92.06499 13.843,-137.86124 -10.5193,-45.79624 -37.0519,-87.95145 -74.5353,-116.2877 -44.0412,-33.29368 -101.6389,-46.48287 -156.5432,-40.68512 -54.9043,5.79775 -107.0383,29.66977 -150.7115,63.44473 -24.1748,18.69579 -45.9281,40.36415 -70.0889,59.0781 -24.1608,18.71394 -51.4685,34.69647 -81.6418,39.54686 -27.6585,4.44614 -56.3608,-0.82425 -81.9968,-12.11824 -25.6361,-11.29399 -48.3874,-28.39708 -68.6281,-47.76393 -40.4814,-38.7337 -71.3638,-86.50074 -111.1106,-125.98795 -30.78919,-30.58813 -67.4693,-56.3038 -109.09106,-68.60169 -41.62175,-12.29788 -88.55929,-10.09039 -126.09155,11.70267 -22.28328,12.93876 -40.59288,32.31912 -53.32859,54.71907 -12.73571,22.39996 -19.98568,47.74297 -22.26723,73.40911 -4.56312,51.33228 10.54432,102.82666 33.86987,148.78037 14.11678,27.8115 31.28975,54.15573 42.76013,83.15907 5.7352,14.50167 10.01617,29.6623 11.52743,45.18347 1.51126,15.52118 0.19343,31.4346 -4.97508,46.14777 -5.36916,15.28437 -14.83076,29.01842 -26.71911,40.02332 -11.88835,11.0049 -26.15883,19.3169 -41.35847,24.9214 -30.39927,11.2091 -63.91801,11.5299 -95.92402,6.4925 -64.01203,-10.0746 -124.10413,-40.7532 -188.7723,-44.8843 -53.04816,-3.3888 -107.29737,12.133 -149.8497,43.9904 -42.55233,31.8573 -72.8748,79.9577 -82.1556,132.2975 -9.28081,52.3398 2.85862,108.3598 33.89047,151.5178 31.03184,43.158 80.751,72.6446 133.62928,78.0739 z"
       id="path4612"
       inkscape:path-effect="#path-effect4614"
       inkscape:original-d="m 356.56717,1411.0956 c -21.49618,135.2922 106.2125,2.5299 159.31725,3.7933 53.10475,1.2634 106.21249,300.9336 159.31724,451.3988 53.10475,150.4653 230.12591,15.1741 345.18734,22.7596 115.0615,7.5856 85.9818,-161.845 128.9711,-242.7691 42.9894,-80.924 214.9529,-20.2297 322.4278,-30.3461 107.4749,-10.1164 151.7317,20.2317 227.5961,30.3461 75.8643,10.1144 32.8759,-199.7778 49.3124,-299.6681 16.4365,-99.8904 -68.2778,-116.3259 -102.4182,-174.4904 -34.1404,-58.1644 91.0394,-179.54697 136.5577,-269.32197 45.5182,-89.775 -40.4606,-169.43163 -60.6923,-254.14894 -20.2318,-84.71731 -204.8355,15.17407 -307.2547,22.75961 -102.4193,7.58553 -101.1528,65.75097 -151.7307,98.62496 -50.5779,32.87398 -174.4894,-123.91242 -261.7355,-185.87012 -87.24617,-61.95771 -156.78741,-37.93168 -235.18261,-56.89902 -78.3952,-18.96734 -27.8163,184.6067 -41.72595,276.90855 -13.90964,92.30185 32.87599,116.32788 49.31248,174.49031 16.4365,58.16242 -235.1816,17.70292 -352.7739,26.55292 -117.5923,8.8499 -42.98937,270.5874 -64.48555,405.8796 z" />
    <path
       style="fill:#000000;stroke:#000000;stroke-width:3.79327"
       d="m 798.48287,1959.7289 c -33.60293,-9.6559 -61.13553,-26.0956 -87.05933,-51.9831 -42.65833,-42.5987 -60.49818,-90.3233 -66.54367,-178.0157 -2.01361,-29.2082 -5.33857,-77.0033 -7.38879,-106.2115 -2.05026,-29.2082 -6.37853,-63.3476 -9.61847,-75.8654 -14.43487,-55.7708 -50.85695,-106.9208 -89.8067,-126.1215 -28.10417,-13.8542 -52.68798,-16.7396 -118.90982,-13.9559 -49.92843,2.0987 -64.98915,1.45 -84.92026,-3.6575 -35.37334,-9.0647 -65.31559,-26.5791 -90.78704,-53.105 -118.68072,-123.5937 -30.57501,-328.7715 147.06041,-342.4698 35.84773,-2.7644 62.59602,1.8618 138.10868,23.8864 73.43737,21.4192 111.12617,26.7776 146.84935,20.878 47.01786,-7.7648 77.20506,-27.6241 94.45127,-62.13684 21.59636,-43.21818 15.78048,-75.02875 -30.04227,-164.3197 -35.10824,-68.41246 -46.14612,-104.95534 -46.07052,-152.52463 0.1449,-91.19817 54.24111,-155.88396 136.09209,-162.73297 46.23785,-3.86902 100.3556,16.12922 146.37955,54.0919 13.58316,11.20405 46.77095,46.47977 73.75045,78.3905 54.6026,64.5824 70.4725,80.09887 104.2566,101.93459 28.3581,18.32874 55.4716,26.5934 87.2438,26.5934 50.7015,0 68.661,-9.36236 152.4977,-79.49784 44.457,-37.19149 79.3709,-57.63498 121.3846,-71.0755 98.1101,-31.38624 197.8154,0.0419 250.1386,78.84639 21.2106,31.94541 29.7076,59.95606 31.6289,104.26557 2.8623,66.00988 -11.5788,101.01468 -78.7093,190.79002 -45.475,60.81491 -65.7341,98.95821 -72.4147,136.34041 -9.6049,53.7459 3.4698,87.7307 65.3536,169.8723 57.7394,76.6404 74.4694,112.5003 81.0072,173.6357 2.9614,27.6924 -4.9956,68.9874 -18.365,95.3099 -24.5032,48.2439 -71.2487,79.6823 -124.4627,83.7069 -37.9948,2.8735 -73.6633,-4.7241 -154.5936,-32.9294 -80.8228,-28.1679 -127.2373,-37.9793 -179.667,-37.9793 -88.3746,0 -155.9344,33.2396 -195.7742,96.3214 -16.8388,26.6623 -19.0918,31.5234 -48.5364,104.7218 -26.6855,66.3391 -44.4804,95.7986 -75.25747,124.5891 -42.0673,39.3519 -88.2789,57.7114 -144.01846,57.2175 -16.77361,-0.1487 -40.73932,-3.2132 -53.2571,-6.8102 z"
       id="path4616" />
  </g>
</svg>
