<?xml version="1.0" encoding="UTF-8" standalone="no"?>
<!-- Created with Inkscape (http://www.inkscape.org/) -->

<svg
   width="2048px"
   height="2048px"
   viewBox="0 0 2048 2048"
   version="1.1"
   id="SVGRoot"
   sodipodi:docname="volumeIcon.svg"
   inkscape:version="1.2.2 (732a01da63, 2022-12-09)"
   xmlns:inkscape="http://www.inkscape.org/namespaces/inkscape"
   xmlns:sodipodi="http://sodipodi.sourceforge.net/DTD/sodipodi-0.dtd"
   xmlns="http://www.w3.org/2000/svg"
   xmlns:svg="http://www.w3.org/2000/svg">
  <sodipodi:namedview
     id="namedview185"
     pagecolor="#ffffff"
     bordercolor="#000000"
     borderopacity="0.25"
     inkscape:showpageshadow="2"
     inkscape:pageopacity="0.0"
     inkscape:pagecheckerboard="0"
     inkscape:deskcolor="#d1d1d1"
     inkscape:document-units="px"
     showgrid="false"
     inkscape:zoom="0.37282197"
     inkscape:cx="513.64999"
     inkscape:cy="1142.6365"
     inkscape:window-width="1920"
     inkscape:window-height="1017"
     inkscape:window-x="-8"
     inkscape:window-y="-8"
     inkscape:window-maximized="1"
     inkscape:current-layer="layer1" />
  <defs
     id="defs180">
    <inkscape:path-effect
       effect="spiro"
       id="path-effect928"
       is_visible="true"
       lpeversion="1" />
  </defs>
  <g
     inkscape:label="Слой 1"
     inkscape:groupmode="layer"
     id="layer1">
    <path
       style="fill:#000000;fill-opacity:0"
       d="m 193.45666,576.5767 c -3.51247,54.09411 4.23821,109.07327 0,163.11051 -3.09028,39.40106 -12.25351,78.17723 -15.17307,117.59131 -2.14832,29.00226 0,58.16343 0,87.24515 0,88.50963 0,177.01913 0,265.52873 0,42.9904 0,85.9808 0,128.9711 0,13.9087 -4.39831,28.5311 0,41.726 1.6964,5.0892 9.4962,6.3568 11.3798,11.3798 2.21984,5.9196 -0.89408,12.7077 0,18.9663 1.37525,9.6268 11.20345,18.6136 15.17307,26.5529 3.22881,6.4576 -0.0136,15.1459 3.79327,22.7596"
       id="path853" />
    <path
       style="fill:#000000;fill-opacity:0"
       d="M 113.79803,45.519213 H 458.9854 L 853.48525,1604.5523 1020.389,1809.3887 1240.3986,1805.5955 1577.9994,37.932678 1881.4608,34.13941 1483.1677,2025.605 H 735.89395 L 504.50461,1771.456 49.312481,49.312481 Z"
       id="path918" />
    <path
       style="fill:#000000;fill-opacity:0"
       d="m 1050.7352,500.71135 c 0,0 -280.70184,94.83169 -246.56243,390.70658 34.13941,295.87487 842.10543,375.53347 842.10543,375.53347 V 280.70181 L 917.9708,246.5624 235.1826,796.58623 Z"
       id="path920" />
    <path
       style="fill:#000000;fill-opacity:0"
       d="M 819.34584,591.74977 C 971.07655,1350.4033 1247.9851,1357.9899 1247.9851,1357.9899 L 1547.6532,584.16324 Z"
       id="path922" />
    <path
       style="font-variation-settings:normal;opacity:1;vector-effect:none;fill:#000000;fill-opacity:0;stroke:#000000;stroke-width:1;stroke-linecap:butt;stroke-linejoin:miter;stroke-miterlimit:4;stroke-dasharray:none;stroke-dashoffset:0;stroke-opacity:1;-inkscape-stroke:none;stop-color:#000000;stop-opacity:1"
       d="m 185.87012,254.14894 c 13.56082,-16.90732 32.63722,-29.00921 53.25734,-35.68484 20.62012,-6.67562 42.73287,-8.09028 64.28445,-5.79191 43.10317,4.59675 83.20892,23.51731 122.09221,42.67723 38.8833,19.15992 78.28529,39.09968 121.07937,46.00474 21.39704,3.45252 43.4964,3.52776 64.58705,-1.46603 21.09065,-4.99379 41.14854,-15.21086 56.44459,-30.56612 14.55782,-14.61417 24.36343,-33.29475 32.1206,-52.40836 7.75717,-19.11362 13.68381,-38.94173 21.76185,-57.92196 8.07804,-18.98024 18.54993,-37.3772 33.82741,-51.23731 7.63874,-6.93006 16.4357,-12.649793 26.06852,-16.335561 9.63281,-3.685768 20.11381,-5.301871 30.36579,-4.17366 15.2627,1.679631 29.54822,9.459241 40.24355,20.476561 10.69532,11.01731 17.92679,25.11743 21.98605,39.926 8.11851,29.61713 3.83149,61.0914 -1.53731,91.32815 -41.50311,233.74288 -143.41542,451.84697 -212.423,678.99493 -57.23542,188.3983 -91.44159,392.7681 -33.25179,580.8738 29.09491,94.0528 81.72272,181.8828 156.62789,245.7707 74.90518,63.8879 172.73904,102.5056 271.12371,98.9128 112.7124,-4.116 219.7713,-63.6177 292.5051,-149.82 72.7338,-86.2022 112.7924,-197.014 124.7544,-309.1654 17.8805,-167.6408 -23.9422,-335.0016 -51.0982,-501.39179 -13.578,-83.1951 -23.549,-167.39021 -20.5243,-251.63176 3.0247,-84.24154 19.4284,-168.87453 56.4494,-244.60584 27.4554,-56.16364 66.5423,-107.30923 116.9839,-144.23893 50.4415,-36.92969 112.6214,-59.01125 175.0977,-56.80426 66.9578,2.3653 132.3972,33.31698 176.8511,83.44485 44.4538,50.12787 67.3532,118.71097 62.133,185.50691 -5.2202,66.79594 -38.4391,130.92347 -89.8613,173.87354 -51.4221,42.95006 -120.355,64.21074 -187.0554,57.88605 -33.506,-3.17712 -66.7026,-13.22535 -94.7561,-31.81969 -28.0535,-18.59433 -50.6965,-46.07099 -60.7679,-78.18508 -7.0201,-22.38456 -7.836,-46.59212 -3.0093,-69.54976 4.8266,-22.95764 15.2258,-44.64532 29.5622,-63.21461 21.5248,-27.88015 52.0988,-48.70597 85.9939,-58.28431 33.895,-9.57833 70.9308,-7.81393 103.6694,5.17856 22.705,9.01061 43.5228,23.53472 58.0272,43.19002 14.5044,19.6553 22.3265,44.61377 19.4154,68.86729 -1.4555,12.12675 -5.5537,23.96141 -12.1577,34.23583 -6.604,10.27442 -15.7265,18.95878 -26.4555,24.79538 -10.729,5.8366 -23.055,8.78345 -35.2519,8.1419 -12.197,-0.64154 -24.2212,-4.90773 -33.9236,-12.32664 -11.4825,-8.78005 -19.2666,-21.39868 -27.273,-33.43338 -8.0065,-12.03469 -16.9219,-24.15709 -29.626,-31.05217 -12.3194,-6.68627 -27.4514,-7.67957 -40.7603,-3.28104 -13.3089,4.39854 -24.7052,13.99284 -31.8934,26.02625 -7.1882,12.03342 -10.2322,26.37794 -9.2331,40.35919 0.9991,13.98124 5.9519,27.57256 13.608,39.31383 12.8752,19.74521 33.1746,34.05106 55.4005,41.90317 22.2259,7.85212 46.3021,9.5452 69.7773,7.40931 56.3944,-5.13105 111.2398,-33.57223 144.1442,-79.65862 16.2531,-22.76428 27.0496,-49.48538 30.5603,-77.23513 3.5107,-27.74976 -0.338,-56.47594 -11.594,-82.08212 -15.384,-34.99687 -44.3075,-63.30743 -78.4048,-80.59397 -34.0972,-17.28654 -73.0862,-23.90239 -111.2586,-21.82426 -47.6771,2.59558 -94.4707,18.62019 -134.0827,45.27979 -39.612,26.6596 -71.9851,63.83188 -93.5133,106.45092 -29.9146,59.22152 -38.5238,127.11118 -37.9327,193.45666 0.8184,91.85683 18.2955,182.63148 34.1394,273.11528 21.5186,122.89183 40.1505,246.39753 68.2788,367.94693 21.004,90.7633 47.3686,180.8495 55.2236,273.6796 7.8551,92.8302 -4.4241,190.6645 -55.2236,268.7577 -35.7481,54.955 -88.9849,97.3435 -148.1566,125.5691 -59.1717,28.2256 -124.1702,42.8154 -189.4442,48.9212 -144.0638,13.4758 -293.26901,-14.9507 -417.45458,-89.2063 -124.18556,-74.2557 -221.50253,-195.56 -257.7471,-335.6396 -28.40717,-109.7893 -19.42535,-225.8722 0,-337.6009 19.72023,-113.4248 49.96135,-224.8856 87.24516,-333.80754 45.25093,-132.19727 100.81045,-260.58781 151.73071,-390.70658 28.0303,-71.62707 54.79732,-144.28382 68.27882,-220.00953 6.06977,-34.09398 9.2015,-70.31874 -3.79327,-102.41823 -8.60254,-21.24986 -24.60209,-39.92982 -45.51921,-49.31248 -6.61316,-2.96642 -13.71585,-5.00461 -20.95966,-5.25117 -7.2438,-0.24656 -14.64388,1.37177 -20.76628,5.25117 -6.35438,4.0264 -11.04555,10.26627 -14.4846,16.95678 -3.43904,6.69051 -5.74248,13.89238 -8.27501,20.9759 -6.48633,18.14233 -14.54799,35.67629 -22.75961,53.10575 -22.17381,47.06471 -45.52186,93.56538 -68.27882,140.35091 -21.02599,43.22686 -41.55969,86.72115 -64.48555,128.9711 -13.95138,25.71093 -28.88962,51.09995 -47.90349,73.32979 -19.01388,22.22983 -42.39949,41.31048 -69.68781,51.84805 -29.93736,11.56052 -63.5756,12.27586 -94.63012,4.18217 -31.05452,-8.0937 -59.55977,-24.71393 -83.51553,-46.06839 -47.91151,-42.70892 -76.89343,-102.60714 -98.7629,-162.95024 -10.37753,-28.6341 -19.50948,-58.15474 -20.90005,-88.57958 -1.39056,-30.42485 5.63728,-62.15211 24.69332,-85.91074 z"
       id="path926"
       inkscape:path-effect="#path-effect928"
       inkscape:original-d="m 185.87012,254.14894 c 1.26342,-58.16444 321.16434,10.11638 481.74501,15.17307 160.58067,5.05669 96.09711,-121.38357 144.14417,-182.076851 48.04706,-60.693285 40.46253,101.154811 60.69229,151.730711 20.22976,50.5759 -141.61433,452.66429 -212.423,678.99493 -70.80866,226.3306 263.0009,617.0392 394.49981,925.5573 131.499,308.5181 278.174,-305.9892 417.2595,-458.9854 139.0855,-152.9961 -10.1144,-665.08525 -15.1731,-997.62939 -5.0587,-332.544139 194.7221,-134.02779 292.0816,-201.04319 97.3596,-67.0154 -25.2874,333.80856 -37.9326,500.71135 -12.6453,166.90278 -103.6817,-73.33551 -155.524,-110.00477 -51.8423,-36.66925 17.7029,-88.50858 26.5529,-132.76437 8.8499,-44.25579 126.4432,-35.40283 189.6633,-53.10575 63.2202,-17.70292 -20.2297,111.27019 -30.3461,166.90378 -10.1164,55.6336 -37.9317,-42.98937 -56.899,-64.48555 -18.9673,-21.49618 -45.5182,68.27982 -68.2788,102.41823 -22.7606,34.13841 83.4529,32.87599 125.1778,49.31248 41.725,16.43649 96.0971,-53.10475 144.1442,-79.65862 48.047,-26.55388 12.6452,-106.2105 18.9663,-159.31725 6.3211,-53.10675 -126.4412,-68.27782 -189.6634,-102.41823 -63.2221,-34.14041 -151.7297,101.15481 -227.596,151.73071 -75.8664,50.57591 -25.2875,128.97211 -37.9327,193.45666 -12.6452,64.48455 22.7606,182.07785 34.1394,273.11528 11.3788,91.03743 45.5202,245.29903 68.2788,367.94693 22.7586,122.648 10e-4,361.6259 0,542.4373 -10e-4,180.8115 -225.0662,116.3279 -337.6008,174.4903 -112.5346,58.1625 -450.13346,-283.2296 -675.20168,-424.8459 -225.06822,-141.6164 0.001,-225.0663 0,-337.6009 -10e-4,-112.5346 58.16444,-222.5373 87.24516,-333.80754 29.08072,-111.27018 101.15481,-260.47005 151.73071,-390.70658 50.57591,-130.23652 45.52022,-146.67202 68.27882,-220.00953 22.75861,-73.33751 -2.52784,-68.27782 -3.79327,-102.41823 -1.26542,-34.14041 -30.34514,-32.87398 -45.51921,-49.31248 -15.17407,-16.43849 -27.8163,0.001 -41.72594,0 -13.90965,-0.001 -15.17208,25.28945 -22.75961,37.93268 -7.58754,12.64323 -15.17207,35.40483 -22.75961,53.10575 -7.58753,17.70092 -45.51821,93.56827 -68.27882,140.35091 -22.7606,46.78263 -42.98937,85.98173 -64.48555,128.9711 -21.49618,42.98937 -78.3932,83.45289 -117.5913,125.17784 C 419.7873,675.20066 274.3807,496.91908 182.07685,428.63926 89.773004,360.35944 184.6067,312.31338 185.87012,254.14894 Z" />
    <path
       style="fill:#000000;fill-opacity:0;stroke-width:3.79327"
       d="m 1079.1847,2004.3292 c -114.57203,-10.6748 -231.33807,-52.5616 -319.47939,-114.6051 -18.312,-12.89 -52.14332,-42.213 -75.18074,-65.1623 -80.68706,-80.3783 -131.74607,-175.9063 -152.06063,-284.4951 -9.69279,-51.8116 -9.69147,-178.0745 0.003,-240.8725 22.55018,-146.0807 57.67827,-282.3712 110.1653,-427.42108 13.45384,-37.1802 53.73546,-141.00008 89.51467,-230.71087 75.42772,-189.1232 98.16703,-254.59874 112.03875,-322.60414 12.95682,-63.52024 11.84209,-97.20279 -4.27653,-129.21806 -15.10149,-29.995 -33.40063,-43.96349 -60.54211,-46.21427 -27.62398,-2.29079 -34.40824,4.07879 -52.97196,49.73424 -7.7905,19.15982 -48.82273,104.82184 -91.1828,190.36002 -82.29134,166.17195 -99.72831,194.41389 -138.77789,224.77263 -78.79938,61.26188 -188.15993,31.47266 -258.20439,-70.33345 -27.06016,-39.33061 -57.63838,-112.12553 -69.46056,-165.35875 -15.22756,-68.56704 7.48226,-122.59643 62.15608,-147.87675 14.36009,-6.63988 24.40043,-8.0669 55.4667,-7.88338 45.55866,0.26913 61.13908,5.10268 146.42094,45.42446 69.01854,32.63238 104.49063,43.49326 142.051,43.49326 48.76944,0 84.18369,-16.70297 107.61182,-50.7546 6.45064,-9.37566 20.3428,-39.20396 30.87155,-66.2851 21.30678,-54.80368 39.32352,-79.92316 66.02266,-92.051021 20.29652,-9.219513 34.89207,-8.806098 53.09482,1.503893 20.03999,11.350618 35.23032,33.958848 40.82744,60.764728 3.83382,18.3611 3.51408,29.39375 -1.94276,67.03472 -14.73848,101.66521 -54.86769,234.66876 -163.54075,542.03669 -86.73747,245.32583 -115.19509,383.82773 -111.17226,541.07003 1.93404,75.5967 5.9887,107.5206 21.22546,167.1151 29.18427,114.1466 97.94885,222.0234 181.75306,285.1312 161.1486,121.3512 363.64372,110.7349 511.28932,-26.8056 121.5507,-113.2315 180.0839,-289.9351 164.9776,-498.0445 -5.2089,-71.7598 -12.0098,-119.9785 -38.1786,-270.68695 -31.0846,-179.01869 -32.0581,-188.025 -32.1841,-297.77152 -0.1005,-87.39852 0.8527,-103.38483 8.3719,-140.44055 20.9962,-103.47135 61.4029,-185.76298 120.6572,-245.72858 89.6398,-90.71587 207.1526,-117.08809 308.1066,-69.14525 88.6928,42.12001 142.3066,126.57573 142.1513,223.92504 -0.1082,67.66405 -24.537,124.77135 -74.6491,174.50675 -47.9074,47.54713 -96.553,69.21048 -163.357,72.74774 -27.4655,1.45426 -44.998,0.34253 -63.5373,-4.02879 -132.6989,-31.28907 -174.3004,-164.82507 -79.0931,-253.88033 61,-57.05831 153.4305,-58.28156 209.2937,-2.76986 39.7692,39.51896 44.5552,86.10017 12.4927,121.58952 -15.4343,17.08382 -34.1075,24.40168 -55.0865,21.58779 -20.8526,-2.79692 -30.8538,-10.46376 -52.535,-40.2727 -10.3954,-14.29239 -23.0592,-28.7109 -28.1417,-32.04105 -38.5999,-25.29169 -89.209,6.73851 -89.3712,56.56251 -0.1282,39.35231 27.1524,73.71264 71.2405,89.7288 22.4424,8.1528 74.6051,8.76025 103.0154,1.19962 137.4069,-36.56706 190.5917,-191.39205 97.6672,-284.31656 -35.9929,-35.99287 -86.3837,-55.1714 -144.911,-55.15251 -43.0819,0.014 -77.9978,8.417 -119.488,28.75675 -30.5905,14.99641 -41.2201,22.89069 -70.3422,52.24097 -28.7338,28.95888 -37.1765,40.42847 -51.9767,70.61106 -32.4471,66.17052 -44.1625,141.78673 -37.1862,240.01522 4.9937,70.31281 6.3249,79.57104 38.3011,266.38603 36.1691,211.31085 45.4546,258.93295 75.8114,388.80995 35.3037,151.0412 38.379,169.7433 40.5437,246.5624 2.1928,77.8186 -3.2375,118.0875 -23.0304,170.782 -16.9516,45.1303 -33.1526,71.1202 -66.6544,106.9281 -71.8528,76.799 -169.99,118.8093 -307.5526,131.6562 -48.8914,4.566 -77.1816,4.5423 -127.0745,-0.1062 z"
       id="path930" />
    <path
       style="fill:#000000;fill-opacity:0;stroke-width:3.79327"
       d="m 1079.1847,2004.3292 c -114.57203,-10.6748 -231.33807,-52.5616 -319.47939,-114.6051 -18.312,-12.89 -52.14332,-42.213 -75.18074,-65.1623 -80.68706,-80.3783 -131.74607,-175.9063 -152.06063,-284.4951 -9.69279,-51.8116 -9.69147,-178.0745 0.003,-240.8725 22.55018,-146.0807 57.67827,-282.3712 110.1653,-427.42108 13.45384,-37.1802 53.73546,-141.00008 89.51467,-230.71087 75.42772,-189.1232 98.16703,-254.59874 112.03875,-322.60414 12.95682,-63.52024 11.84209,-97.20279 -4.27653,-129.21806 -15.10149,-29.995 -33.40063,-43.96349 -60.54211,-46.21427 -27.62398,-2.29079 -34.40824,4.07879 -52.97196,49.73424 -7.7905,19.15982 -48.82273,104.82184 -91.1828,190.36002 -82.29134,166.17195 -99.72831,194.41389 -138.77789,224.77263 -78.79938,61.26188 -188.15993,31.47266 -258.20439,-70.33345 -27.06016,-39.33061 -57.63838,-112.12553 -69.46056,-165.35875 -15.22756,-68.56704 7.48226,-122.59643 62.15608,-147.87675 14.36009,-6.63988 24.40043,-8.0669 55.4667,-7.88338 45.55866,0.26913 61.13908,5.10268 146.42094,45.42446 69.01854,32.63238 104.49063,43.49326 142.051,43.49326 48.76944,0 84.18369,-16.70297 107.61182,-50.7546 6.45064,-9.37566 20.3428,-39.20396 30.87155,-66.2851 21.30678,-54.80368 39.32352,-79.92316 66.02266,-92.051021 20.29652,-9.219513 34.89207,-8.806098 53.09482,1.503893 20.03999,11.350618 35.23032,33.958848 40.82744,60.764728 3.83382,18.3611 3.51408,29.39375 -1.94276,67.03472 -14.73848,101.66521 -54.86769,234.66876 -163.54075,542.03669 -86.73747,245.32583 -115.19509,383.82773 -111.17226,541.07003 1.93404,75.5967 5.9887,107.5206 21.22546,167.1151 29.18427,114.1466 97.94885,222.0234 181.75306,285.1312 161.1486,121.3512 363.64372,110.7349 511.28932,-26.8056 121.5507,-113.2315 180.0839,-289.9351 164.9776,-498.0445 -5.2089,-71.7598 -12.0098,-119.9785 -38.1786,-270.68695 -31.0846,-179.01869 -32.0581,-188.025 -32.1841,-297.77152 -0.1005,-87.39852 0.8527,-103.38483 8.3719,-140.44055 20.9962,-103.47135 61.4029,-185.76298 120.6572,-245.72858 89.6398,-90.71587 207.1526,-117.08809 308.1066,-69.14525 88.6928,42.12001 142.3066,126.57573 142.1513,223.92504 -0.1082,67.66405 -24.537,124.77135 -74.6491,174.50675 -47.9074,47.54713 -96.553,69.21048 -163.357,72.74774 -27.4655,1.45426 -44.998,0.34253 -63.5373,-4.02879 -132.6989,-31.28907 -174.3004,-164.82507 -79.0931,-253.88033 61,-57.05831 153.4305,-58.28156 209.2937,-2.76986 39.7692,39.51896 44.5552,86.10017 12.4927,121.58952 -15.4343,17.08382 -34.1075,24.40168 -55.0865,21.58779 -20.8526,-2.79692 -30.8538,-10.46376 -52.535,-40.2727 -10.3954,-14.29239 -23.0592,-28.7109 -28.1417,-32.04105 -38.5999,-25.29169 -89.209,6.73851 -89.3712,56.56251 -0.1282,39.35231 27.1524,73.71264 71.2405,89.7288 22.4424,8.1528 74.6051,8.76025 103.0154,1.19962 137.4069,-36.56706 190.5917,-191.39205 97.6672,-284.31656 -35.9929,-35.99287 -86.3837,-55.1714 -144.911,-55.15251 -43.0819,0.014 -77.9978,8.417 -119.488,28.75675 -30.5905,14.99641 -41.2201,22.89069 -70.3422,52.24097 -28.7338,28.95888 -37.1765,40.42847 -51.9767,70.61106 -32.4471,66.17052 -44.1625,141.78673 -37.1862,240.01522 4.9937,70.31281 6.3249,79.57104 38.3011,266.38603 36.1691,211.31085 45.4546,258.93295 75.8114,388.80995 35.3037,151.0412 38.379,169.7433 40.5437,246.5624 2.1928,77.8186 -3.2375,118.0875 -23.0304,170.782 -16.9516,45.1303 -33.1526,71.1202 -66.6544,106.9281 -71.8528,76.799 -169.99,118.8093 -307.5526,131.6562 -48.8914,4.566 -77.1816,4.5423 -127.0745,-0.1062 z"
       id="path932" />
    <path
       style="fill:#000000;fill-opacity:0;stroke-width:3.79327"
       d="m 1079.1847,2004.3292 c -114.57203,-10.6748 -231.33807,-52.5616 -319.47939,-114.6051 -18.312,-12.89 -52.14332,-42.213 -75.18074,-65.1623 -80.68706,-80.3783 -131.74607,-175.9063 -152.06063,-284.4951 -9.69279,-51.8116 -9.69147,-178.0745 0.003,-240.8725 22.55018,-146.0807 57.67827,-282.3712 110.1653,-427.42108 13.45384,-37.1802 53.73546,-141.00008 89.51467,-230.71087 75.42772,-189.1232 98.16703,-254.59874 112.03875,-322.60414 12.95682,-63.52024 11.84209,-97.20279 -4.27653,-129.21806 -15.10149,-29.995 -33.40063,-43.96349 -60.54211,-46.21427 -27.62398,-2.29079 -34.40824,4.07879 -52.97196,49.73424 -7.7905,19.15982 -48.82273,104.82184 -91.1828,190.36002 -82.29134,166.17195 -99.72831,194.41389 -138.77789,224.77263 -78.79938,61.26188 -188.15993,31.47266 -258.20439,-70.33345 -27.06016,-39.33061 -57.63838,-112.12553 -69.46056,-165.35875 -15.22756,-68.56704 7.48226,-122.59643 62.15608,-147.87675 14.36009,-6.63988 24.40043,-8.0669 55.4667,-7.88338 45.55866,0.26913 61.13908,5.10268 146.42094,45.42446 69.01854,32.63238 104.49063,43.49326 142.051,43.49326 48.76944,0 84.18369,-16.70297 107.61182,-50.7546 6.45064,-9.37566 20.3428,-39.20396 30.87155,-66.2851 21.30678,-54.80368 39.32352,-79.92316 66.02266,-92.051021 20.29652,-9.219513 34.89207,-8.806098 53.09482,1.503893 20.03999,11.350618 35.23032,33.958848 40.82744,60.764728 3.83382,18.3611 3.51408,29.39375 -1.94276,67.03472 -14.73848,101.66521 -54.86769,234.66876 -163.54075,542.03669 -86.73747,245.32583 -115.19509,383.82773 -111.17226,541.07003 1.93404,75.5967 5.9887,107.5206 21.22546,167.1151 29.18427,114.1466 97.94885,222.0234 181.75306,285.1312 161.1486,121.3512 363.64372,110.7349 511.28932,-26.8056 121.5507,-113.2315 180.0839,-289.9351 164.9776,-498.0445 -5.2089,-71.7598 -12.0098,-119.9785 -38.1786,-270.68695 -31.0846,-179.01869 -32.0581,-188.025 -32.1841,-297.77152 -0.1005,-87.39852 0.8527,-103.38483 8.3719,-140.44055 20.9962,-103.47135 61.4029,-185.76298 120.6572,-245.72858 89.6398,-90.71587 207.1526,-117.08809 308.1066,-69.14525 88.6928,42.12001 142.3066,126.57573 142.1513,223.92504 -0.1082,67.66405 -24.537,124.77135 -74.6491,174.50675 -47.9074,47.54713 -96.553,69.21048 -163.357,72.74774 -27.4655,1.45426 -44.998,0.34253 -63.5373,-4.02879 -132.6989,-31.28907 -174.3004,-164.82507 -79.0931,-253.88033 61,-57.05831 153.4305,-58.28156 209.2937,-2.76986 39.7692,39.51896 44.5552,86.10017 12.4927,121.58952 -15.4343,17.08382 -34.1075,24.40168 -55.0865,21.58779 -20.8526,-2.79692 -30.8538,-10.46376 -52.535,-40.2727 -10.3954,-14.29239 -23.0592,-28.7109 -28.1417,-32.04105 -38.5999,-25.29169 -89.209,6.73851 -89.3712,56.56251 -0.1282,39.35231 27.1524,73.71264 71.2405,89.7288 22.4424,8.1528 74.6051,8.76025 103.0154,1.19962 137.4069,-36.56706 190.5917,-191.39205 97.6672,-284.31656 -35.9929,-35.99287 -86.3837,-55.1714 -144.911,-55.15251 -43.0819,0.014 -77.9978,8.417 -119.488,28.75675 -30.5905,14.99641 -41.2201,22.89069 -70.3422,52.24097 -28.7338,28.95888 -37.1765,40.42847 -51.9767,70.61106 -32.4471,66.17052 -44.1625,141.78673 -37.1862,240.01522 4.9937,70.31281 6.3249,79.57104 38.3011,266.38603 36.1691,211.31085 45.4546,258.93295 75.8114,388.80995 35.3037,151.0412 38.379,169.7433 40.5437,246.5624 2.1928,77.8186 -3.2375,118.0875 -23.0304,170.782 -16.9516,45.1303 -33.1526,71.1202 -66.6544,106.9281 -71.8528,76.799 -169.99,118.8093 -307.5526,131.6562 -48.8914,4.566 -77.1816,4.5423 -127.0745,-0.1062 z"
       id="path934" />
    <path
       style="fill:#000000;fill-opacity:1;stroke:#000000;stroke-width:2.68225;stroke-opacity:1"
       d="m 1074.2393,2004.7971 c -199.99361,-22.1114 -361.17003,-114.9655 -462.41744,-266.3998 -43.68442,-65.3382 -71.98321,-139.8456 -83.76014,-220.531 -6.26318,-42.9098 -6.27678,-132.9326 -0.0281,-186.1315 15.83979,-134.8545 54.41624,-293.056 108.57212,-445.25271 25.09291,-70.5198 32.37652,-89.3821 96.84155,-250.78994 76.37099,-191.21808 92.06303,-235.6106 109.03489,-308.45822 6.44377,-27.65827 7.5193,-38.03647 7.64424,-73.76174 0.13035,-37.28336 -0.48678,-43.1383 -5.9791,-56.7217 -7.46494,-18.46204 -23.69255,-37.43819 -40.3771,-47.216 -9.8844,-5.79264 -15.86474,-7.30065 -29.08365,-7.33378 -15.28957,-0.0383 -17.39894,0.69271 -25.97998,9.00372 -5.5548,5.38001 -11.78458,15.70565 -15.37369,25.48134 -10.83158,29.5021 -25.10896,60.31839 -82.79826,178.71174 C 568.87294,522.98833 547.80363,559.84708 514.80201,592.8487 465.54566,642.10505 401.94819,654.011 337.71473,626.00082 298.03632,608.69833 255.25656,568.06714 227.56455,521.38285 199.37055,473.85228 173.49968,406.68341 165.73569,360.8558 c -13.07576,-77.18083 26.00575,-135.02092 98.35639,-145.56614 42.11718,-6.13864 81.80703,4.40171 163.4533,43.40793 79.20021,37.83762 104.91297,45.76081 148.32575,45.70542 41.01263,-0.0523 68.96522,-10.21742 92.43313,-33.61375 15.9647,-15.91598 28.17508,-38.69957 43.98791,-82.0778 13.85066,-37.99559 25.99683,-60.21171 41.2693,-75.48417 15.35521,-15.35521 28.43142,-21.47033 48.86184,-22.850364 14.27379,-0.964166 18.41547,-0.08756 30.39714,6.433676 16.52612,8.994648 25.28,18.758928 34.64409,38.642788 6.41537,13.62255 6.94324,17.52549 6.89257,50.96266 -0.0461,30.38399 -1.48081,43.11559 -8.91699,79.12624 -24.65421,119.39146 -49.19361,198.66289 -140.73935,454.64059 -78.39055,219.19355 -109.0735,334.34082 -124.22057,466.17602 -6.15771,53.5946 -6.15943,150.5456 -0.003,197.6797 30.63991,234.6002 167.17615,406.369 359.2831,451.9943 96.9396,23.0231 206.0905,1.5282 296.0713,-58.3049 66.2699,-44.0669 116.5847,-102.3116 155.8822,-180.4509 45.9936,-91.454 64.862,-178.1285 64.862,-297.9525 0,-90.2748 -6.5781,-146.8085 -37.4255,-321.64617 -30.2826,-171.63629 -35.9936,-220.7335 -36.192,-311.14046 -0.1545,-70.42739 2.5744,-101.2208 13.6462,-153.97842 29.8021,-142.00851 111.4399,-255.8696 215.9205,-301.1468 71.825,-31.12568 144.3805,-31.02434 210.4942,0.294 29.891,14.15953 44.2035,23.76599 66.5425,44.66303 51.5879,48.25796 80.1248,121.32993 75.7817,194.04799 -6.7675,113.31266 -88.4948,206.4881 -201.5924,229.83101 -121.1397,25.00274 -232.0724,-43.69815 -232.0724,-143.723 0,-62.647 45.4632,-124.37314 107.6707,-146.18636 23.2757,-8.16173 64.178,-10.19015 88.8039,-4.40396 54.9411,12.90917 95.0458,53.72195 97.9983,99.7286 1.7403,27.11785 -4.2598,43.92351 -21.9642,61.51901 -14.6262,14.53629 -27.6355,20.11182 -46.9268,20.11182 -22.6221,0 -37.6043,-10.27192 -58.6831,-40.23368 -16.2763,-23.13544 -21.847,-29.20042 -31.4454,-34.23553 -29.5728,-15.51328 -63.3214,-3.88371 -79.8909,27.52992 -7.9337,15.04117 -7.9157,46.0026 0.037,63.61543 18.8727,41.79813 70.4143,67.05243 128.4839,62.95442 29.9481,-2.11348 51.5034,-8.05444 81.1867,-22.37631 21.0413,-10.15219 29.0717,-16.00115 48.5746,-35.37919 18.8604,-18.73973 25.5168,-27.61219 34.5219,-46.01526 27.3454,-55.88357 24.4695,-113.63196 -8.0826,-162.30136 -16.7091,-24.98235 -39.5399,-44.45126 -68.0358,-58.0174 -29.5612,-14.07337 -48.4998,-18.61642 -84.4907,-20.26802 -68.0954,-3.12484 -131.133,18.38812 -183.6638,62.67929 -77.9741,65.7436 -112.8376,163.63067 -107.7856,302.6319 2.3507,64.67599 8.8407,112.13454 40.8984,299.07035 34.0653,198.64265 47.9853,269.81775 74.4903,380.87885 21.558,90.3324 28.5465,123.0122 35.0581,163.9399 21.5985,135.7534 0.4014,253.3932 -60.3374,334.8599 -60.7328,81.4587 -162.3721,135.184 -292.1931,154.4498 -33.8496,5.0234 -139.2191,7.3062 -171.6637,3.7192 z"
       id="path2759" />
  </g>
</svg>
