<?xml version="1.0" encoding="UTF-8" standalone="no"?>
<!-- Created with Inkscape (http://www.inkscape.org/) -->

<svg
   width="2048px"
   height="2048px"
   viewBox="0 0 2048 2048"
   version="1.1"
   id="SVGRoot"
   sodipodi:docname="volume2Icon.svg"
   inkscape:version="1.2.2 (732a01da63, 2022-12-09)"
   xmlns:inkscape="http://www.inkscape.org/namespaces/inkscape"
   xmlns:sodipodi="http://sodipodi.sourceforge.net/DTD/sodipodi-0.dtd"
   xmlns="http://www.w3.org/2000/svg"
   xmlns:svg="http://www.w3.org/2000/svg">
  <sodipodi:namedview
     id="namedview14"
     pagecolor="#ffffff"
     bordercolor="#000000"
     borderopacity="0.25"
     inkscape:showpageshadow="2"
     inkscape:pageopacity="0.0"
     inkscape:pagecheckerboard="0"
     inkscape:deskcolor="#d1d1d1"
     inkscape:document-units="px"
     showgrid="false"
     inkscape:zoom="0.26362494"
     inkscape:cx="686.58147"
     inkscape:cy="656.23532"
     inkscape:window-width="1920"
     inkscape:window-height="1017"
     inkscape:window-x="-8"
     inkscape:window-y="-8"
     inkscape:window-maximized="1"
     inkscape:current-layer="layer1" />
  <defs
     id="defs9">
    <inkscape:path-effect
       effect="spiro"
       id="path-effect139"
       is_visible="true"
       lpeversion="1" />
  </defs>
  <g
     inkscape:label="Слой 1"
     inkscape:groupmode="layer"
     id="layer1">
    <path
       style="font-variation-settings:normal;opacity:1;vector-effect:none;fill:#000000;fill-opacity:0;stroke:#000000;stroke-width:1;stroke-linecap:butt;stroke-linejoin:miter;stroke-miterlimit:4;stroke-dasharray:none;stroke-dashoffset:0;stroke-opacity:1;-inkscape-stroke:none;stop-color:#000000;stop-opacity:1"
       d="M 163.11051,610.71611 C 137.5852,560.43164 133.26695,501.03302 144.31166,445.73308 155.35637,390.43314 180.95879,338.87983 212.423,292.08162 257.79822,224.59289 317.84341,164.36848 392.99974,133.30139 c 37.57817,-15.53355 78.53019,-23.45238 119.11474,-20.94173 40.58456,2.51066 80.73781,15.66507 113.7747,39.37105 43.86173,31.47346 73.40217,80.12305 89.15966,131.75764 15.75749,51.6346 18.66125,106.36251 17.05184,160.32398 -4.52715,151.7895 -44.05744,301.4643 -106.2115,440.01906 -53.306,118.83051 -123.31307,230.54171 -164.00705,354.26011 -20.34698,61.8591 -33.16864,126.6999 -31.77345,191.8045 1.39518,65.1046 17.48087,130.5928 51.63633,186.0361 31.01618,50.3474 76.04778,91.128 126.26929,122.3477 50.22151,31.2196 105.64031,53.2678 162.01906,71.1089 93.95591,29.7323 192.65412,48.2625 290.96014,41.3589 98.3059,-6.9036 196.5,-40.6978 270.4435,-105.8444 56.9147,-50.1436 97.6798,-117.198 121.8631,-189.0926 24.1834,-71.8945 32.2778,-148.559 29.8676,-224.3736 -3.608,-113.4941 -30.5584,-225.8932 -75.8654,-330.0143 -38.9486,-89.50883 -91.2774,-173.02353 -125.5001,-264.44362 -17.1114,-45.71004 -29.6259,-93.44676 -32.9191,-142.1434 -3.2931,-48.69663 2.8764,-98.47275 21.8616,-143.43682 22.4096,-53.07416 62.5404,-98.23975 111.8461,-128.03905 49.3058,-29.7993 107.4746,-44.30147 165.0624,-42.658 80.3425,2.29285 159.6108,36.67137 215.038,94.87777 55.4273,58.2064 85.9716,139.75248 80.8369,219.96346 -4.3521,67.98548 -35.0769,135.28982 -88.3538,177.7461 -26.6384,21.22813 -58.5096,36.0267 -92.0893,41.73993 -33.5798,5.71322 -68.8062,2.21981 -100.2587,-10.8563 -46.3592,-19.27346 -83.5406,-60.06299 -97.1709,-108.38331 -13.6302,-48.32033 -2.9326,-103.14159 28.8921,-141.97237 26.426,-32.24363 66.8002,-52.83705 108.455,-54.52796 41.6548,-1.69092 83.8561,15.78401 111.5545,46.94143 7.537,8.47826 14.0544,17.9439 18.5516,28.35844 4.4972,10.41455 6.9328,21.80956 6.2873,33.13523 -0.6455,11.32568 -4.4642,22.56485 -11.482,31.4776 -7.0179,8.91275 -17.3102,15.35835 -28.5299,17.03349 -9.82,1.46615 -19.9069,-0.68731 -29.0721,-4.50575 -9.1652,-3.81845 -17.553,-9.25016 -25.8924,-14.63863 -8.3394,-5.38847 -16.7467,-10.79521 -25.9356,-14.55632 -9.1888,-3.7611 -19.3038,-5.82072 -29.1047,-4.23197 -8.1709,1.32452 -15.868,5.18188 -22.0416,10.69586 -6.1736,5.51398 -10.8361,12.64615 -13.7218,20.4044 -5.7713,15.51651 -4.3222,33.108 1.624,48.55836 10.2486,26.62972 33.6769,47.42735 60.8576,56.10989 27.1807,8.68255 57.5836,5.59336 83.2866,-6.79741 29.5285,-14.23491 52.7252,-40.2779 65.585,-70.43063 12.8598,-30.15273 15.6886,-64.14186 10.2803,-96.47315 -7.4494,-44.53344 -30.8826,-86.61535 -66.2867,-114.63804 -35.4041,-28.02269 -82.7143,-41.20008 -127.1699,-33.2994 -28.9957,5.15314 -56.1978,18.9151 -78.596,38.03646 -22.3983,19.12136 -40.0747,43.47928 -52.7898,70.04306 -25.4302,53.12754 -30.8715,113.79553 -27.9315,172.62229 4.2502,85.04301 25.2896,169.12195 60.6923,246.56241 47.8274,104.61845 120.8808,195.98195 170.697,299.66815 50.414,104.9303 76.1353,223.2353 62.723,338.8729 -13.4123,115.6375 -67.8669,227.9732 -157.5546,302.1894 -45.2314,37.4288 -98.72,64.823 -155.524,79.6586 -66.4847,17.3639 -136.1614,17.5074 -204.8365,15.173 -159.3201,-5.4156 -319.65468,-23.9177 -470.36519,-75.8653 -112.08996,-38.6357 -221.18464,-98.4278 -292.08162,-193.4567 -42.4095,-56.8449 -69.52368,-124.5122 -81.4384,-194.4261 -11.91472,-69.9138 -8.86961,-142.0178 5.57305,-211.4535 28.59441,-137.4728 100.1388,-261.4105 163.11051,-386.91333 C 579.7893,820.9012 630.08461,705.12592 663.82186,584.16324 678.65283,530.98778 690.31367,476.32416 689.3736,421.12721 688.43352,365.93025 674.08857,309.76504 641.06225,265.52874 619.46494,236.60075 590.24866,213.42593 557.19478,198.90996 524.14091,184.39399 487.32827,178.56267 451.39886,182.07685 c -29.87574,2.92208 -59.17324,12.29011 -84.87825,27.79335 -25.70502,15.50325 -47.75249,37.16775 -63.16309,62.92842 -15.4106,25.76066 -24.09511,55.59791 -24.28656,85.6156 -0.19144,30.01769 8.18869,60.12755 24.39046,85.39811 16.33863,25.48403 39.85661,45.35128 60.90689,67.10609 10.52515,10.8774 20.53246,22.35291 28.63521,35.13735 8.10275,12.78445 14.27951,26.95466 16.6694,41.90073 4.67808,29.25607 -6.047,60.15476 -26.53072,81.56082 -20.48372,21.40606 -49.99627,33.37031 -79.61208,34.21046 -29.61581,0.84015 -59.12172,-9.04904 -83.44329,-25.96836 -24.32157,-16.91932 -43.56563,-40.62446 -56.97632,-67.04331 z"
       id="path137"
       inkscape:path-effect="#path-effect139"
       inkscape:original-d="m 163.11051,610.71611 c -82.188464,7.58554 32.87599,-212.42199 49.31249,-318.63449 16.43649,-106.2125 275.64512,-93.56627 413.46618,-140.35091 137.82106,-46.78464 70.80867,194.72208 106.2115,292.08162 35.40283,97.35954 -70.80667,293.34704 -106.2115,440.01906 -35.40483,146.67201 -96.09511,488.06811 -144.14417,732.10071 -48.04906,244.0325 192.19323,128.9721 288.28835,193.4566 96.09511,64.4846 374.27004,-42.9893 561.40364,-64.4855 187.1335,-21.4962 101.1548,-275.6432 151.7307,-413.4662 50.5759,-137.8231 -50.5759,-220.0085 -75.8654,-330.0143 -25.2894,-110.00577 -91.0374,-366.68156 -136.5576,-550.02384 -45.5202,-183.34227 184.6067,-113.79703 276.9085,-170.69705 92.3019,-56.90001 197.251,209.89515 295.8749,314.84123 98.624,104.94607 -187.1335,139.08748 -280.7018,208.62973 -93.5683,69.54224 -45.5182,-166.90278 -68.2788,-250.35568 -22.7606,-83.45289 146.674,-5.05669 220.0095,-7.58653 73.3355,-2.52985 -10.1143,73.33751 -15.173,110.00476 -5.0587,36.66726 -73.3355,-25.28745 -110.0048,-37.93267 -36.6693,-12.64523 -22.7586,53.10675 -34.1394,79.65862 -11.3808,26.55187 96.0971,32.87599 144.1442,49.31248 48.047,16.43649 50.5779,-111.26819 75.8653,-166.90378 25.2875,-55.6356 -128.9701,-98.62396 -193.4566,-147.93744 -64.4866,-49.31349 -106.2105,187.13554 -159.3173,280.70181 -53.1067,93.56627 40.4625,164.37594 60.6923,246.56241 20.2298,82.18645 113.799,199.77975 170.697,299.66815 56.8981,99.8884 -63.2201,427.3758 -94.8316,641.0623 -31.6116,213.6864 -103.6817,53.1067 -155.524,79.6586 -51.8424,26.5518 -136.5567,10.1164 -204.8365,15.173 -68.2798,5.0567 -313.57579,-50.5759 -470.36519,-75.8653 C 571.51801,1894.104 533.58733,1790.4234 436.22579,1725.9368 338.86425,1661.4503 385.64989,1455.3514 360.36044,1320.0572 335.07099,1184.763 469.10178,1062.116 523.47095,933.14387 577.84012,804.17177 617.03922,700.49111 663.82186,584.16324 710.6045,467.83536 648.64979,371.74124 641.06225,265.52874 633.47472,159.31625 514.62099,209.89515 451.39886,182.07685 388.17674,154.25856 352.7749,356.56817 303.46142,443.81233 c -49.31348,87.24416 70.80867,96.09712 106.2115,144.14417 35.40283,48.04706 -164.37394,15.17408 -246.56241,22.75961 z" />
    <path
       style="fill:#000000;stroke:#000000;stroke-width:3.79327"
       d="M 1122.8073,1989.3746 C 786.55383,1965.3744 555.37681,1876.5491 442.11918,1727.8335 351.07831,1608.2901 326.98206,1450.24 373.54348,1278.0375 390.68082,1214.6569 418.83746,1149.1933 494.70803,996.33239 593.27558,797.74257 629.01354,712.73643 661.84212,598.78807 685.56904,516.43179 691.76523,474.89141 689.3999,414.03593 686.39522,336.73119 666.90799,285.74811 623.85906,242.566 581.7536,200.33025 532.85136,180.14731 472.81059,180.22524 c -61.08933,0.0793 -103.53642,16.89373 -142.82551,56.57707 -46.38559,46.85104 -63.00483,104.70986 -47.34548,164.83019 8.36146,32.10179 20.19556,49.75413 65.83252,98.19903 46.6131,49.48113 58.49179,70.04277 58.58071,101.40141 0.16704,58.90884 -51.17357,102.0441 -116.409,97.80425 -36.20364,-2.35296 -63.89381,-16.16186 -92.74814,-46.25287 -78.8742,-82.25469 -74.60772,-217.86679 10.99427,-349.45833 78.43697,-120.5771 181.30225,-187.63132 287.83794,-187.63132 116.591,0 197.09256,74.13615 224.48341,206.73309 6.96129,33.69912 7.62981,47.24651 5.9898,121.38457 -2.63094,118.93484 -19.80431,211.16371 -61.88209,332.33494 -24.28271,69.92677 -43.63248,113.2353 -106.22868,237.76013 -99.74205,198.4204 -124.99639,274.1775 -129.24493,387.705 -2.39927,64.1122 3.45162,106.5406 21.51869,156.0456 47.69497,130.6873 175.79567,221.4814 384.13472,272.2636 68.02782,16.5816 119.82277,23.0897 183.76028,23.0897 111.2103,0 201.4778,-25.8887 280.7342,-80.5145 68.8686,-47.4661 125.5051,-126.7913 156.389,-219.0388 33.6984,-100.6542 37.9824,-237.8473 11.5041,-368.4155 -18.8201,-92.8042 -39.3776,-146.9478 -113.6457,-299.31448 -89.809,-184.25024 -99.8566,-215.65527 -100.1223,-312.94459 -0.1643,-60.19563 0.5024,-66.50433 10.0247,-94.83169 14.8135,-44.06845 34.6835,-75.62006 69.2769,-110.00477 34.6945,-34.48533 61.5711,-51.73351 104.0181,-66.75433 98.8353,-34.97499 204.4123,-17.55851 290.3954,47.905 71.9537,54.78221 112.1408,137.004 112.1108,229.37569 -0.023,70.03204 -23.1503,129.01746 -68.4841,174.66534 -43.3479,43.64819 -92.6329,62.97792 -152.5556,59.83277 -60.2739,-3.16355 -113.2849,-38.34148 -140.1855,-93.02659 -11.9827,-24.35934 -12.6211,-27.77051 -12.6211,-67.4429 0,-37.39589 1.068,-44.06457 10.1662,-63.47601 14.1958,-30.28769 40.833,-57.41892 70.911,-72.22628 22.8619,-11.25489 28.0301,-12.29505 61.0906,-12.29505 31.0954,0 39.0792,1.38952 57.434,9.99591 11.725,5.49773 28.2703,16.27665 36.7673,23.95319 17.4579,15.77222 34.8495,47.53454 34.8495,63.64584 0,29.52589 -23.9453,54.10581 -49.6662,50.98243 -7.4967,-0.91035 -27.0911,-9.53483 -43.5433,-19.16556 -23.9142,-13.99883 -33.4397,-17.51041 -47.4988,-17.51041 -42.0606,0 -61.627,45.15332 -39.1296,90.29961 18.6866,37.49907 54.105,56.30101 99.7384,52.94636 47.3596,-3.48154 85.9133,-31.35549 107.6671,-77.84218 20.9165,-44.69763 18.8396,-107.92086 -5.1204,-155.86909 -54.6534,-109.37119 -186.4645,-130.67292 -271.6052,-43.89358 -53.5684,54.59947 -77.012,145.52615 -65.9381,255.74345 12.7869,127.2669 45.6326,213.96655 138.6262,365.91822 86.0138,140.5466 108.7293,186.5947 132.4841,268.5677 17.417,60.1024 22.6318,98.5172 22.52,165.8936 -0.1116,67.2008 -4.6505,97.5899 -22.9456,153.6273 -15.0488,46.094 -29.5728,76.0803 -56.0371,115.6947 -61.3334,91.8097 -144.6451,148.7361 -256.1186,175.0042 -26.2396,6.1832 -48.84,7.8459 -121.3846,8.9302 -49.028,0.7328 -110.4789,-0.1904 -136.5576,-2.0519 z"
       id="path210" />
  </g>
</svg>
